<?xml version="1.0" encoding="UTF-8"?>
<!DOCTYPE svg PUBLIC "-//W3C//DTD SVG 1.1//EN" "http://www.w3.org/Graphics/SVG/1.1/DTD/svg11.dtd">
<!-- Creator: CorelDRAW 2020 (64-Bit) -->
<svg xmlns="http://www.w3.org/2000/svg" xml:space="preserve" width="30.0092mm" height="11.0066mm" version="1.1" style="shape-rendering:geometricPrecision; text-rendering:geometricPrecision; image-rendering:optimizeQuality; fill-rule:evenodd; clip-rule:evenodd"
viewBox="0 0 3000.92 1100.66"
 xmlns:xlink="http://www.w3.org/1999/xlink"
 xmlns:xodm="http://www.corel.com/coreldraw/odm/2003">
 <defs>
  <style type="text/css">
   <![CDATA[
    .str0 {stroke:#E7BB70;stroke-width:105.83;stroke-miterlimit:22.9256}
    .str1 {stroke:#E7BB70;stroke-width:7.62;stroke-miterlimit:22.9256}
    .fil1 {fill:none}
    .fil3 {fill:none;fill-rule:nonzero}
    .fil0 {fill:#FEFEFE;fill-rule:nonzero}
    .fil2 {fill:#E7BB70;fill-rule:nonzero}
    .fil5 {fill:#ECBC68;fill-rule:nonzero}
    .fil4 {fill:#F8F0DD;fill-rule:nonzero}
   ]]>
  </style>
    <clipPath id="id0">
     <path d="M-7.15 0.51l2519.35 0 0 1100.69 -2519.35 0 0 -1100.69z"/>
    </clipPath>
 </defs>
 <g id="Capa_x0020_1">
  <metadata id="CorelCorpID_0Corel-Layer"/>
  <path class="fil0" d="M-46583.79 7930.31c-16.25,0 -31.65,-2.9 -46.23,-8.68 -14.57,-5.79 -27.42,-14.01 -38.54,-24.69 -11.13,-10.68 -19.97,-23.48 -26.53,-38.39 -6.57,-14.9 -9.85,-31.37 -9.85,-49.38l0 -0.67c0,-17.36 3.17,-33.48 9.52,-48.4 6.33,-14.9 15.12,-27.8 26.36,-38.71 11.23,-10.9 24.41,-19.41 39.54,-25.53 15.13,-6.12 31.37,-9.17 48.73,-9.17 12.9,0 24.75,1.5 35.54,4.5 10.79,3 20.58,7.18 29.37,12.51 8.79,5.35 16.57,11.74 23.36,19.19 6.79,7.46 12.63,15.63 17.52,24.53l-64.41 37.71c-4.45,-8.45 -9.95,-15.29 -16.52,-20.52 -6.56,-5.23 -15.18,-7.84 -25.86,-7.84 -6.68,0 -12.68,1.33 -18.03,4 -5.33,2.68 -9.9,6.34 -13.68,11.01 -3.78,4.68 -6.73,10.13 -8.84,16.36 -2.12,6.22 -3.17,12.79 -3.17,19.69l0 0.67c0,7.56 1.05,14.51 3.17,20.85 2.11,6.34 5.12,11.8 9.01,16.36 3.89,4.55 8.51,8.12 13.85,10.68 5.34,2.55 11.23,3.83 17.69,3.83 11.12,0 20.02,-2.72 26.69,-8.17 6.68,-5.45 12.46,-12.52 17.36,-21.19l64.41 36.37c-4.9,8.68 -10.68,16.85 -17.36,24.53 -6.67,7.68 -14.51,14.35 -23.52,20.03 -9.02,5.66 -19.25,10.18 -30.71,13.51 -11.46,3.33 -24.41,5.01 -38.87,5.01z"/>
  <polygon id="1" class="fil0" points="-46458.31,7691.69 -46259.08,7691.69 -46259.08,7755.77 -46381.55,7755.77 -46381.55,7779.46 -46267.42,7779.46 -46267.42,7835.86 -46381.55,7835.86 -46381.55,7861.22 -46257.41,7861.22 -46257.41,7925.3 -46458.31,7925.3 "/>
  <polygon id="2" class="fil0" points="-46236.38,7691.69 -46163.29,7691.69 -46080.2,7794.81 -46080.2,7691.69 -46002.77,7691.69 -46002.77,7925.3 -46072.19,7925.3 -46158.96,7817.5 -46158.96,7925.3 -46236.38,7925.3 "/>
  <polygon id="3" class="fil0" points="-45916.33,7757.77 -45985.08,7757.77 -45985.08,7691.69 -45769.49,7691.69 -45769.49,7757.77 -45838.24,7757.77 -45838.24,7925.3 -45916.33,7925.3 "/>
  <path id="4" class="fil0" d="M-45640 7802.82c9.34,0 16.69,-2 22.02,-6 5.35,-4.01 8.01,-9.57 8.01,-16.69l0 -0.67c0,-7.57 -2.66,-13.18 -8.01,-16.86 -5.33,-3.66 -12.57,-5.5 -21.69,-5.5l-34.04 0 0 45.72 33.71 0zm-111.8 -111.13l114.13 0c20.92,0 38.11,2.39 51.57,7.18 13.45,4.78 24.3,11.29 32.53,19.51 7.13,7.13 12.46,15.14 16.02,24.04 3.57,8.89 5.34,19.35 5.34,31.36l0 0.68c0,17.13 -4.11,31.58 -12.34,43.38 -8.24,11.8 -19.47,21.13 -33.71,28.03l54.4 79.43 -89.11 0 -44.05 -66.75 -0.67 0 -16.02 0 0 66.75 -78.09 0 0 -233.61z"/>
  <path id="5" class="fil0" d="M-45390.7 7861.22c7.33,0 14.01,-1.44 20.02,-4.33 6,-2.89 11.13,-6.74 15.35,-11.52 4.22,-4.78 7.46,-10.29 9.68,-16.52 2.22,-6.23 3.33,-12.79 3.33,-19.68l0 -0.67c0,-6.9 -1.16,-13.52 -3.5,-19.86 -2.33,-6.34 -5.62,-11.96 -9.84,-16.86 -4.23,-4.89 -9.35,-8.79 -15.35,-11.68 -6.01,-2.89 -12.8,-4.33 -20.36,-4.33 -7.35,0 -14.02,1.44 -20.03,4.33 -6.01,2.89 -11.12,6.74 -15.34,11.52 -4.24,4.78 -7.46,10.29 -9.68,16.52 -2.24,6.22 -3.35,12.79 -3.35,19.69l0 0.67c0,6.89 1.17,13.51 3.51,19.85 2.34,6.34 5.62,11.96 9.85,16.86 4.22,4.89 9.34,8.79 15.35,11.68 6,2.89 12.79,4.33 20.36,4.33zm-0.67 69.09c-18.03,0 -34.76,-3.12 -50.23,-9.34 -15.46,-6.24 -28.92,-14.81 -40.38,-25.71 -11.46,-10.9 -20.41,-23.75 -26.87,-38.54 -6.44,-14.79 -9.68,-30.65 -9.68,-47.55l0 -0.67c0,-16.91 3.29,-32.76 9.85,-47.56 6.57,-14.8 15.58,-27.7 27.04,-38.71 11.45,-11.02 24.97,-19.69 40.54,-26.04 15.58,-6.33 32.37,-9.5 50.4,-9.5 18.01,0 34.76,3.11 50.22,9.33 15.47,6.24 28.92,14.81 40.38,25.71 11.46,10.9 20.42,23.75 26.86,38.54 6.46,14.8 9.68,30.65 9.68,47.56l0 0.67c0,16.9 -3.28,32.76 -9.84,47.55 -6.56,14.8 -15.57,27.7 -27.03,38.71 -11.46,11.01 -24.97,19.69 -40.55,26.04 -15.57,6.33 -32.38,9.51 -50.39,9.51z"/>
  <path id="6" class="fil0" d="M-46583.79 8299.08c-16.25,0 -31.65,-2.89 -46.23,-8.68 -14.57,-5.78 -27.42,-14.01 -38.54,-24.69 -11.13,-10.68 -19.97,-23.47 -26.53,-38.38 -6.57,-14.91 -9.85,-31.37 -9.85,-49.39l0 -0.67c0,-17.36 3.17,-33.48 9.52,-48.39 6.33,-14.91 15.12,-27.81 26.36,-38.72 11.23,-10.9 24.41,-19.41 39.54,-25.52 15.13,-6.13 31.37,-9.18 48.73,-9.18 12.9,0 24.75,1.5 35.54,4.5 10.79,3.01 20.58,7.18 29.37,12.52 8.79,5.34 16.57,11.74 23.36,19.18 6.79,7.46 12.63,15.64 17.52,24.54l-64.41 37.71c-4.45,-8.46 -9.95,-15.29 -16.52,-20.53 -6.56,-5.22 -15.18,-7.84 -25.86,-7.84 -6.68,0 -12.68,1.33 -18.03,4.01 -5.33,2.67 -9.9,6.33 -13.68,11.01 -3.78,4.67 -6.73,10.13 -8.84,16.35 -2.12,6.23 -3.17,12.79 -3.17,19.69l0 0.67c0,7.57 1.05,14.51 3.17,20.86 2.11,6.34 5.12,11.79 9.01,16.35 3.89,4.56 8.51,8.12 13.85,10.68 5.34,2.56 11.23,3.84 17.69,3.84 11.12,0 20.02,-2.73 26.69,-8.18 6.68,-5.45 12.46,-12.51 17.36,-21.19l64.41 36.37c-4.9,8.68 -10.68,16.86 -17.36,24.54 -6.67,7.67 -14.51,14.35 -23.52,20.02 -9.02,5.67 -19.25,10.18 -30.71,13.52 -11.46,3.33 -24.41,5 -38.87,5z"/>
  <path id="7" class="fil0" d="M-46346.51 8171.6c9.34,0 16.69,-2.01 22.02,-6.01 5.35,-4 8.01,-9.57 8.01,-16.69l0 -0.67c0,-7.56 -2.66,-13.18 -8.01,-16.85 -5.33,-3.66 -12.57,-5.51 -21.69,-5.51l-34.04 0 0 45.73 33.71 0zm-111.8 -111.14l114.13 0c20.92,0 38.11,2.4 51.57,7.18 13.45,4.79 24.3,11.29 32.53,19.52 7.13,7.13 12.46,15.13 16.02,24.03 3.57,8.9 5.34,19.36 5.34,31.37l0 0.67c0,17.14 -4.11,31.59 -12.34,43.39 -8.24,11.79 -19.47,21.13 -33.71,28.02l54.4 79.44 -89.11 0 -44.05 -66.75 -0.67 0 -16.02 0 0 66.75 -78.09 0 0 -233.62z"/>
  <polygon id="8" class="fil0" points="-46219.03,8060.46 -46140.93,8060.46 -46140.93,8294.08 -46219.03,8294.08 "/>
  <path id="9" class="fil0" d="M-46013.12 8298.41c-23.81,0 -46,-3.27 -66.58,-9.84 -20.58,-6.56 -38.32,-16.41 -53.22,-29.54l41.71 -49.72c12.68,9.79 26.03,16.79 40.05,21.02 14.01,4.23 27.92,6.34 41.72,6.34 7.11,0 12.23,-0.89 15.35,-2.67 3.11,-1.78 4.67,-4.22 4.67,-7.33l0 -0.68c0,-3.33 -2.29,-6.11 -6.84,-8.34 -4.57,-2.23 -13.07,-4.56 -25.53,-7.01 -13.13,-2.66 -25.65,-5.78 -37.55,-9.34 -11.9,-3.56 -22.36,-8.13 -31.37,-13.68 -9.01,-5.57 -16.18,-12.52 -21.53,-20.86 -5.33,-8.35 -8,-18.75 -8,-31.21l0 -0.67c0,-11.12 2.17,-21.47 6.5,-31.04 4.35,-9.55 10.68,-17.9 19.03,-25.02 8.34,-7.13 18.69,-12.68 31.03,-16.68 12.35,-4.01 26.53,-6.02 42.56,-6.02 22.69,0 42.54,2.67 59.56,8.02 17.03,5.33 32.32,13.34 45.89,24.02l-38.04 52.74c-11.12,-8.02 -22.86,-13.86 -35.21,-17.53 -12.35,-3.67 -23.98,-5.5 -34.88,-5.5 -5.78,0 -10.07,0.89 -12.85,2.67 -2.78,1.77 -4.17,4.11 -4.17,7.01l0 0.67c0,1.55 0.45,3 1.34,4.33 0.89,1.33 2.5,2.61 4.83,3.83 2.35,1.23 5.51,2.4 9.52,3.52 4.01,1.11 9.12,2.22 15.35,3.33 14.91,2.67 28.48,5.89 40.71,9.68 12.24,3.78 22.75,8.62 31.54,14.51 8.79,5.9 15.58,12.96 20.36,21.2 4.78,8.23 7.18,18.24 7.18,30.03l0 0.67c0,12.24 -2.46,23.25 -7.35,33.04 -4.89,9.79 -11.79,18.07 -20.69,24.86 -8.9,6.79 -19.75,12.02 -32.54,15.69 -12.79,3.67 -26.97,5.5 -42.55,5.5z"/>
  <polygon id="10" class="fil0" points="-45832.23,8126.54 -45900.98,8126.54 -45900.98,8060.46 -45685.39,8060.46 -45685.39,8126.54 -45754.14,8126.54 -45754.14,8294.08 -45832.23,8294.08 "/>
  <polygon id="11" class="fil0" points="-45667.04,8060.46 -45588.94,8060.46 -45588.94,8294.08 -45667.04,8294.08 "/>
  <path id="12" class="fil0" d="M-45420.75 8207.31l-21.35 -56.73 -21.36 56.73 42.71 0zm-59.4 -148.52l77.43 0 98.45 235.29 -84.77 0 -12.35 -31.37 -81.77 0 -12.01 31.37 -83.43 0 98.45 -235.29z"/>
  <polygon id="13" class="fil0" points="-45294.59,8060.46 -45221.51,8060.46 -45138.41,8163.59 -45138.41,8060.46 -45060.98,8060.46 -45060.98,8294.08 -45130.41,8294.08 -45217.17,8186.28 -45217.17,8294.08 -45294.59,8294.08 "/>
  <path id="14" class="fil0" d="M-44911.8 8230c7.34,0 14.01,-1.44 20.02,-4.34 6.01,-2.89 11.13,-6.73 15.35,-11.52 4.23,-4.78 7.46,-10.29 9.68,-16.51 2.23,-6.24 3.34,-12.79 3.34,-19.69l0 -0.67c0,-6.9 -1.16,-13.51 -3.51,-19.86 -2.33,-6.33 -5.61,-11.96 -9.84,-16.85 -4.23,-4.9 -9.34,-8.79 -15.35,-11.68 -6.01,-2.9 -12.79,-4.34 -20.36,-4.34 -7.35,0 -14.01,1.44 -20.03,4.34 -6,2.89 -11.12,6.73 -15.34,11.52 -4.23,4.77 -7.46,10.29 -9.68,16.51 -2.23,6.23 -3.34,12.79 -3.34,19.69l0 0.67c0,6.9 1.17,13.51 3.5,19.86 2.34,6.33 5.63,11.96 9.85,16.85 4.22,4.9 9.35,8.79 15.35,11.68 6.01,2.9 12.8,4.34 20.36,4.34zm-0.67 69.08c-18.02,0 -34.76,-3.11 -50.22,-9.34 -15.47,-6.23 -28.93,-14.8 -40.39,-25.7 -11.45,-10.9 -20.41,-23.75 -26.86,-38.55 -6.45,-14.79 -9.68,-30.64 -9.68,-47.55l0 -0.67c0,-16.9 3.28,-32.76 9.85,-47.55 6.56,-14.81 15.57,-27.71 27.03,-38.72 11.45,-11.02 24.97,-19.69 40.55,-26.03 15.57,-6.34 32.37,-9.51 50.39,-9.51 18.02,0 34.76,3.11 50.23,9.34 15.46,6.23 28.91,14.8 40.37,25.7 11.46,10.9 20.42,23.75 26.87,38.55 6.45,14.79 9.68,30.64 9.68,47.55l0 0.67c0,16.91 -3.29,32.76 -9.84,47.55 -6.57,14.81 -15.58,27.71 -27.04,38.72 -11.46,11.01 -24.97,19.69 -40.54,26.03 -15.58,6.34 -32.38,9.51 -50.4,9.51z"/>
  <polygon id="15" class="fil0" points="-46699.6,8429.24 -46500.37,8429.24 -46500.37,8493.32 -46622.84,8493.32 -46622.84,8517.01 -46508.71,8517.01 -46508.71,8573.41 -46622.84,8573.41 -46622.84,8598.77 -46498.7,8598.77 -46498.7,8662.85 -46699.6,8662.85 "/>
  <path id="16" class="fil0" d="M-46377.22 8667.18c-23.81,0 -46,-3.27 -66.58,-9.83 -20.58,-6.57 -38.32,-16.42 -53.23,-29.54l41.72 -49.73c12.68,9.79 26.03,16.8 40.05,21.02 14.01,4.24 27.92,6.35 41.72,6.35 7.11,0 12.23,-0.89 15.35,-2.67 3.11,-1.79 4.67,-4.23 4.67,-7.34l0 -0.67c0,-3.33 -2.29,-6.12 -6.84,-8.35 -4.57,-2.22 -13.07,-4.55 -25.53,-7 -13.13,-2.67 -25.65,-5.79 -37.55,-9.34 -11.9,-3.57 -22.36,-8.13 -31.37,-13.69 -9.01,-5.56 -16.18,-12.52 -21.53,-20.85 -5.33,-8.35 -8,-18.75 -8,-31.21l0 -0.67c0,-11.12 2.17,-21.47 6.5,-31.04 4.35,-9.56 10.68,-17.91 19.03,-25.02 8.34,-7.13 18.69,-12.69 31.03,-16.69 12.35,-4 26.53,-6.02 42.56,-6.02 22.69,0 42.54,2.68 59.56,8.02 17.03,5.34 32.32,13.34 45.89,24.02l-38.04 52.74c-11.12,-8.02 -22.86,-13.85 -35.21,-17.52 -12.35,-3.68 -23.98,-5.51 -34.88,-5.51 -5.78,0 -10.07,0.89 -12.85,2.67 -2.78,1.77 -4.17,4.12 -4.17,7.01l0 0.67c0,1.55 0.45,3 1.34,4.33 0.89,1.34 2.5,2.62 4.83,3.84 2.35,1.23 5.51,2.39 9.52,3.51 4.01,1.11 9.12,2.22 15.35,3.33 14.91,2.68 28.48,5.9 40.71,9.68 12.24,3.79 22.75,8.62 31.54,14.52 8.79,5.89 15.58,12.96 20.36,21.2 4.78,8.22 7.18,18.23 7.18,30.02l0 0.67c0,12.24 -2.46,23.25 -7.35,33.04 -4.89,9.79 -11.79,18.08 -20.69,24.87 -8.9,6.78 -19.75,12.02 -32.54,15.68 -12.79,3.67 -26.97,5.5 -42.55,5.5z"/>
  <path id="17" class="fil0" d="M-46156.95 8543.71c10.01,0 18.08,-2.17 24.2,-6.51 6.11,-4.34 9.17,-10.73 9.17,-19.19l0 -0.67c0,-8.45 -2.89,-14.84 -8.67,-19.19 -5.79,-4.33 -13.91,-6.5 -24.37,-6.5l-21.36 0 0 52.06 21.03 0zm-99.12 -114.47l105.13 0c15.57,0 29.76,1.72 42.55,5.17 12.79,3.45 23.75,8.62 32.87,15.52 9.13,6.89 16.24,15.57 21.36,26.03 5.11,10.46 7.67,22.58 7.67,36.37l0 0.67c0,14.02 -2.56,26.43 -7.67,37.22 -5.12,10.79 -12.34,19.86 -21.69,27.19 -9.35,7.35 -20.53,12.85 -33.54,16.53 -13.02,3.66 -27.43,5.5 -43.22,5.5l-25.37 0 0 63.41 -78.09 0 0 -233.61z"/>
  <polygon id="18" class="fil0" points="-46029.79,8429.24 -45830.56,8429.24 -45830.56,8493.32 -45953.03,8493.32 -45953.03,8517.01 -45838.9,8517.01 -45838.9,8573.41 -45953.03,8573.41 -45953.03,8598.77 -45828.89,8598.77 -45828.89,8662.85 -46029.79,8662.85 "/>
  <path id="19" class="fil0" d="M-45696.06 8540.37c9.34,0 16.69,-2 22.02,-6.01 5.35,-4 8.01,-9.56 8.01,-16.68l0 -0.67c0,-7.57 -2.66,-13.18 -8.01,-16.86 -5.33,-3.66 -12.57,-5.5 -21.69,-5.5l-34.04 0 0 45.72 33.71 0zm-111.8 -111.13l114.13 0c20.92,0 38.11,2.39 51.57,7.18 13.45,4.78 24.3,11.29 32.53,19.51 7.13,7.13 12.46,15.14 16.02,24.03 3.57,8.9 5.34,19.36 5.34,31.37l0 0.67c0,17.14 -4.11,31.59 -12.34,43.39 -8.24,11.79 -19.47,21.13 -33.71,28.03l54.4 79.43 -89.11 0 -44.05 -66.75 -0.67 0 -16.02 0 0 66.75 -78.09 0 0 -233.61z"/>
  <path id="20" class="fil0" d="M-45428.42 8576.08l-21.35 -56.73 -21.35 56.73 42.7 0zm-59.4 -148.51l77.43 0 98.45 235.28 -84.77 0 -12.35 -31.37 -81.76 0 -12.01 31.37 -83.44 0 98.45 -235.28z"/>
  <polygon id="21" class="fil0" points="-45302.26,8429.24 -45229.18,8429.24 -45146.08,8532.36 -45146.08,8429.24 -45068.65,8429.24 -45068.65,8662.85 -45138.07,8662.85 -45224.84,8555.05 -45224.84,8662.85 -45302.26,8662.85 "/>
  <polygon id="22" class="fil0" points="-45049.29,8608.12 -44943.5,8493.32 -45045.29,8493.32 -45045.29,8429.24 -44831.36,8429.24 -44831.36,8483.97 -44937.16,8598.77 -44831.36,8598.77 -44831.36,8662.85 -45049.29,8662.85 "/>
  <path id="23" class="fil0" d="M-44671.51 8576.08l-21.35 -56.73 -21.36 56.73 42.71 0zm-59.4 -148.51l77.43 0 98.45 235.28 -84.77 0 -12.35 -31.37 -81.77 0 -12.01 31.37 -83.43 0 98.45 -235.28z"/>
  <g id="_1433875868368">
   <g>
   </g>
   <g style="clip-path:url(#id0)">
    <g id="_1433875886656">
     <path class="fil1 str0" d="M-277.11 368.56c301.34,-137.86 408.26,-131.68 424.7,-104.71 23.88,39.19 -158.06,171.75 -336.05,382.1 392.01,-119.71 577.49,-245.42 632.5,-114.05 79.13,188.99 -532.18,493.02 -815.52,629.22"/>
    </g>
   </g>
   <polygon class="fil1" points="-7.15,0.51 2512.2,0.51 2512.2,1101.2 -7.15,1101.2 "/>
   <polygon class="fil2" points="1599.64,885.71 1599.64,865.97 1627.14,865.97 1627.14,861.18 1599.64,861.18 1599.64,842.28 1630.48,842.28 1630.48,837.41 1594.03,837.41 1594.03,890.57 1631.61,890.57 1631.61,885.71 "/>
   <polygon id="1" class="fil2" points="1684.01,890.57 1663.73,863.09 1682.57,837.41 1676.49,837.41 1660.55,859.13 1644.52,837.41 1638.07,837.41 1656.97,863.24 1636.77,890.57 1643.23,890.57 1660.32,867.18 1677.48,890.57 "/>
   <path id="2" class="fil2" d="M1712.03 837.41l-19.9 0 0 53.16 5.62 0 0 -16.78 14.28 0c13.51,0 21.72,-6.84 21.72,-18.15 0,-11.39 -8.21,-18.23 -21.72,-18.23zm-0.15 31.44l-14.13 0 0 -26.57 14.13 0c10.63,0 16.25,4.85 16.25,13.36 0,8.36 -5.62,13.21 -16.25,13.21z"/>
   <path id="3" class="fil2" d="M1782.96 890.57l5.92 0 -24.3 -53.16 -5.54 0 -24.31 53.16 5.85 0 6.38 -14.2 29.62 0 6.38 14.2zm-33.94 -18.76l12.75 -28.55 12.76 28.55 -25.51 0z"/>
   <polygon id="4" class="fil2" points="1836.57,837.41 1836.57,880.55 1802.32,837.41 1797.69,837.41 1797.69,890.57 1803.31,890.57 1803.31,847.44 1837.49,890.57 1842.11,890.57 1842.11,837.41 "/>
   <path id="5" class="fil2" d="M1874.08 891.03c13.59,0 19.82,-6.68 19.82,-14.51 0,-19.36 -32.73,-10.55 -32.73,-25.13 0,-5.32 4.33,-9.64 14.05,-9.64 4.7,0 10.02,1.44 14.58,4.4l1.9 -4.48c-4.25,-2.97 -10.48,-4.71 -16.48,-4.71 -13.51,0 -19.59,6.76 -19.59,14.58 0,19.66 32.73,10.71 32.73,25.29 0,5.23 -4.33,9.42 -14.28,9.42 -6.99,0 -13.74,-2.74 -17.54,-6.46l-2.2 4.33c3.95,4.1 11.77,6.91 19.74,6.91z"/>
   <polygon id="6" class="fil2" points="1906.13,890.57 1911.74,890.57 1911.74,837.41 1906.13,837.41 "/>
   <path id="7" class="fil2" d="M1947.36 833.09l5.31 0 12.31 -9.42 -7.21 0 -10.41 9.42zm4.94 57.94c15.94,0 27.87,-11.47 27.87,-27.03 0,-15.58 -11.93,-27.04 -27.87,-27.04 -16.1,0 -27.94,11.54 -27.94,27.04 0,15.48 11.84,27.03 27.94,27.03zm0 -5.01c-12.84,0 -22.41,-9.34 -22.41,-22.02 0,-12.68 9.57,-22.03 22.41,-22.03 12.75,0 22.25,9.35 22.25,22.03 0,12.68 -9.5,22.02 -22.25,22.02z"/>
   <polygon id="8" class="fil2" points="2031.64,837.41 2031.64,880.55 1997.4,837.41 1992.77,837.41 1992.77,890.57 1998.38,890.57 1998.38,847.44 2032.56,890.57 2037.19,890.57 2037.19,837.41 "/>
   <path id="9" class="fil2" d="M2089.05 891.03c13.6,0 19.82,-6.68 19.82,-14.51 0,-19.36 -32.73,-10.55 -32.73,-25.13 0,-5.32 4.34,-9.64 14.06,-9.64 4.7,0 10.01,1.44 14.58,4.4l1.89 -4.48c-4.24,-2.97 -10.48,-4.71 -16.47,-4.71 -13.52,0 -19.59,6.76 -19.59,14.58 0,19.66 32.73,10.71 32.73,25.29 0,5.23 -4.34,9.42 -14.29,9.42 -6.98,0 -13.74,-2.74 -17.53,-6.46l-2.2 4.33c3.94,4.1 11.77,6.91 19.73,6.91z"/>
   <path id="10" class="fil2" d="M2144.34 891.03c15.95,0 27.87,-11.47 27.87,-27.03 0,-15.58 -11.92,-27.04 -27.87,-27.04 -16.1,0 -27.94,11.54 -27.94,27.04 0,15.48 11.84,27.03 27.94,27.03zm0 -5.01c-12.84,0 -22.41,-9.34 -22.41,-22.02 0,-12.68 9.57,-22.03 22.41,-22.03 12.76,0 22.25,9.35 22.25,22.03 0,12.68 -9.49,22.02 -22.25,22.02z"/>
   <path id="11" class="fil2" d="M2218.3 863.16c4.86,-1.98 8.13,-6 8.13,-12.07 0,-8.66 -6.84,-13.68 -18.69,-13.68l-22.93 0 0 53.16 24.45 0c13.3,0 19.97,-5.16 19.97,-14.2 0,-7.22 -4.09,-11.69 -10.93,-13.21zm-10.94 -21.11c8.51,0 13.44,3.26 13.44,9.64 0,6.38 -4.93,9.64 -13.44,9.64l-16.93 0 0 -19.28 16.93 0zm1.82 43.89l-18.75 0 0 -19.97 18.75 0c9.35,0 14.44,3.03 14.44,9.95 0,6.98 -5.09,10.02 -14.44,10.02z"/>
   <path id="12" class="fil2" d="M2284.52 890.57l-12.98 -18.23c7.75,-2.5 12.15,-8.34 12.15,-16.7 0,-11.39 -8.21,-18.23 -21.72,-18.23l-19.9 0 0 53.16 5.62 0 0 -16.85 14.28 0c1.51,0 2.88,-0.08 4.26,-0.23l12.15 17.08 6.14 0zm-22.7 -21.64l-14.13 0 0 -26.65 14.13 0c10.63,0 16.25,4.85 16.25,13.36 0,8.36 -5.62,13.29 -16.25,13.29z"/>
   <polygon id="13" class="fil2" points="2302.59,885.71 2302.59,865.97 2330.08,865.97 2330.08,861.18 2302.59,861.18 2302.59,842.28 2333.43,842.28 2333.43,837.41 2296.97,837.41 2296.97,890.57 2334.56,890.57 2334.56,885.71 "/>
   <polygon id="14" class="fil2" points="2386.65,837.41 2386.65,880.55 2352.41,837.41 2347.78,837.41 2347.78,890.57 2353.39,890.57 2353.39,847.44 2387.58,890.57 2392.2,890.57 2392.2,837.41 "/>
   <path id="15" class="fil2" d="M2449.23 890.57l5.93 0 -24.31 -53.16 -5.54 0 -24.3 53.16 5.84 0 6.39 -14.2 29.62 0 6.37 14.2zm-33.94 -18.76l12.75 -28.55 12.76 28.55 -25.51 0z"/>
   <polygon id="16" class="fil2" points="2471.63,890.57 2477.25,890.57 2477.25,842.28 2495.93,842.28 2495.93,837.41 2452.94,837.41 2452.94,842.28 2471.63,842.28 "/>
   <path id="17" class="fil2" d="M2525.24 891.03c13.6,0 21.8,-7.91 21.8,-23.17l0 -30.45 -5.47 0 0 30.23c0,12.6 -5.92,18.38 -16.33,18.38 -10.32,0 -16.24,-5.78 -16.24,-18.38l0 -30.23 -5.63 0 0 30.45c0,15.26 8.28,23.17 21.87,23.17z"/>
   <path id="18" class="fil2" d="M2606.42 890.57l-12.98 -18.23c7.75,-2.5 12.15,-8.34 12.15,-16.7 0,-11.39 -8.2,-18.23 -21.72,-18.23l-19.9 0 0 53.16 5.62 0 0 -16.85 14.28 0c1.51,0 2.89,-0.08 4.26,-0.23l12.15 17.08 6.14 0zm-22.7 -21.64l-14.13 0 0 -26.65 14.13 0c10.63,0 16.25,4.85 16.25,13.36 0,8.36 -5.62,13.29 -16.25,13.29z"/>
   <path id="19" class="fil2" d="M2658.59 890.57l5.93 0 -24.31 -53.16 -5.54 0 -24.3 53.16 5.84 0 6.39 -14.2 29.61 0 6.38 14.2zm-33.94 -18.76l12.75 -28.55 12.76 28.55 -25.51 0z"/>
   <polygon id="20" class="fil2" points="2673.32,890.57 2708.71,890.57 2708.71,885.71 2678.94,885.71 2678.94,837.41 2673.32,837.41 "/>
   <polygon id="21" class="fil3 str1" points="1599.64,885.71 1599.64,865.97 1627.14,865.97 1627.14,861.18 1599.64,861.18 1599.64,842.28 1630.48,842.28 1630.48,837.41 1594.03,837.41 1594.03,890.57 1631.61,890.57 1631.61,885.71 "/>
   <polygon id="22" class="fil3 str1" points="1684.01,890.57 1663.73,863.09 1682.57,837.41 1676.49,837.41 1660.55,859.13 1644.52,837.41 1638.07,837.41 1656.97,863.24 1636.77,890.57 1643.23,890.57 1660.32,867.18 1677.48,890.57 "/>
   <path id="23" class="fil3 str1" d="M1712.03 837.41l-19.9 0 0 53.16 5.62 0 0 -16.78 14.28 0c13.51,0 21.72,-6.84 21.72,-18.15 0,-11.39 -8.21,-18.23 -21.72,-18.23zm-0.15 31.44l-14.13 0 0 -26.57 14.13 0c10.63,0 16.25,4.85 16.25,13.36 0,8.36 -5.62,13.21 -16.25,13.21z"/>
   <path id="24" class="fil3 str1" d="M1782.96 890.57l5.92 0 -24.3 -53.16 -5.54 0 -24.31 53.16 5.85 0 6.38 -14.2 29.62 0 6.38 14.2zm-33.94 -18.76l12.75 -28.55 12.76 28.55 -25.51 0z"/>
   <polygon id="25" class="fil3 str1" points="1836.57,837.41 1836.57,880.55 1802.32,837.41 1797.69,837.41 1797.69,890.57 1803.31,890.57 1803.31,847.44 1837.49,890.57 1842.11,890.57 1842.11,837.41 "/>
   <path id="26" class="fil3 str1" d="M1874.08 891.03c13.59,0 19.82,-6.68 19.82,-14.51 0,-19.36 -32.73,-10.55 -32.73,-25.13 0,-5.32 4.33,-9.64 14.05,-9.64 4.7,0 10.02,1.44 14.58,4.4l1.9 -4.48c-4.25,-2.97 -10.48,-4.71 -16.48,-4.71 -13.51,0 -19.59,6.76 -19.59,14.58 0,19.66 32.73,10.71 32.73,25.29 0,5.23 -4.33,9.42 -14.28,9.42 -6.99,0 -13.74,-2.74 -17.54,-6.46l-2.2 4.33c3.95,4.1 11.77,6.91 19.74,6.91z"/>
   <polygon id="27" class="fil3 str1" points="1906.13,890.57 1911.74,890.57 1911.74,837.41 1906.13,837.41 "/>
   <path id="28" class="fil3 str1" d="M1947.36 833.09l5.31 0 12.31 -9.42 -7.21 0 -10.41 9.42zm4.94 57.94c15.94,0 27.87,-11.47 27.87,-27.03 0,-15.58 -11.93,-27.04 -27.87,-27.04 -16.1,0 -27.94,11.54 -27.94,27.04 0,15.48 11.84,27.03 27.94,27.03zm0 -5.01c-12.84,0 -22.41,-9.34 -22.41,-22.02 0,-12.68 9.57,-22.03 22.41,-22.03 12.75,0 22.25,9.35 22.25,22.03 0,12.68 -9.5,22.02 -22.25,22.02z"/>
   <polygon id="29" class="fil3 str1" points="2031.64,837.41 2031.64,880.55 1997.4,837.41 1992.77,837.41 1992.77,890.57 1998.38,890.57 1998.38,847.44 2032.56,890.57 2037.19,890.57 2037.19,837.41 "/>
   <path id="30" class="fil3 str1" d="M2089.05 891.03c13.6,0 19.82,-6.68 19.82,-14.51 0,-19.36 -32.73,-10.55 -32.73,-25.13 0,-5.32 4.34,-9.64 14.06,-9.64 4.7,0 10.01,1.44 14.58,4.4l1.89 -4.48c-4.24,-2.97 -10.48,-4.71 -16.47,-4.71 -13.52,0 -19.59,6.76 -19.59,14.58 0,19.66 32.73,10.71 32.73,25.29 0,5.23 -4.34,9.42 -14.29,9.42 -6.98,0 -13.74,-2.74 -17.53,-6.46l-2.2 4.33c3.94,4.1 11.77,6.91 19.73,6.91z"/>
   <path id="31" class="fil3 str1" d="M2144.34 891.03c15.95,0 27.87,-11.47 27.87,-27.03 0,-15.58 -11.92,-27.04 -27.87,-27.04 -16.1,0 -27.94,11.54 -27.94,27.04 0,15.48 11.84,27.03 27.94,27.03zm0 -5.01c-12.84,0 -22.41,-9.34 -22.41,-22.02 0,-12.68 9.57,-22.03 22.41,-22.03 12.76,0 22.25,9.35 22.25,22.03 0,12.68 -9.49,22.02 -22.25,22.02z"/>
   <path id="32" class="fil3 str1" d="M2218.3 863.16c4.86,-1.98 8.13,-6 8.13,-12.07 0,-8.66 -6.84,-13.68 -18.69,-13.68l-22.93 0 0 53.16 24.45 0c13.3,0 19.97,-5.16 19.97,-14.2 0,-7.22 -4.09,-11.69 -10.93,-13.21zm-10.94 -21.11c8.51,0 13.44,3.26 13.44,9.64 0,6.38 -4.93,9.64 -13.44,9.64l-16.93 0 0 -19.28 16.93 0zm1.82 43.89l-18.75 0 0 -19.97 18.75 0c9.35,0 14.44,3.03 14.44,9.95 0,6.98 -5.09,10.02 -14.44,10.02z"/>
   <path id="33" class="fil3 str1" d="M2284.52 890.57l-12.98 -18.23c7.75,-2.5 12.15,-8.34 12.15,-16.7 0,-11.39 -8.21,-18.23 -21.72,-18.23l-19.9 0 0 53.16 5.62 0 0 -16.85 14.28 0c1.51,0 2.88,-0.08 4.26,-0.23l12.15 17.08 6.14 0zm-22.7 -21.64l-14.13 0 0 -26.65 14.13 0c10.63,0 16.25,4.85 16.25,13.36 0,8.36 -5.62,13.29 -16.25,13.29z"/>
   <polygon id="34" class="fil3 str1" points="2302.59,885.71 2302.59,865.97 2330.08,865.97 2330.08,861.18 2302.59,861.18 2302.59,842.28 2333.43,842.28 2333.43,837.41 2296.97,837.41 2296.97,890.57 2334.56,890.57 2334.56,885.71 "/>
   <polygon id="35" class="fil3 str1" points="2386.65,837.41 2386.65,880.55 2352.41,837.41 2347.78,837.41 2347.78,890.57 2353.39,890.57 2353.39,847.44 2387.58,890.57 2392.2,890.57 2392.2,837.41 "/>
   <path id="36" class="fil3 str1" d="M2449.23 890.57l5.93 0 -24.31 -53.16 -5.54 0 -24.3 53.16 5.84 0 6.39 -14.2 29.62 0 6.37 14.2zm-33.94 -18.76l12.75 -28.55 12.76 28.55 -25.51 0z"/>
   <polygon id="37" class="fil3 str1" points="2471.63,890.57 2477.25,890.57 2477.25,842.28 2495.93,842.28 2495.93,837.41 2452.94,837.41 2452.94,842.28 2471.63,842.28 "/>
   <path id="38" class="fil3 str1" d="M2525.24 891.03c13.6,0 21.8,-7.91 21.8,-23.17l0 -30.45 -5.47 0 0 30.23c0,12.6 -5.92,18.38 -16.33,18.38 -10.32,0 -16.24,-5.78 -16.24,-18.38l0 -30.23 -5.63 0 0 30.45c0,15.26 8.28,23.17 21.87,23.17z"/>
   <path id="39" class="fil3 str1" d="M2606.42 890.57l-12.98 -18.23c7.75,-2.5 12.15,-8.34 12.15,-16.7 0,-11.39 -8.2,-18.23 -21.72,-18.23l-19.9 0 0 53.16 5.62 0 0 -16.85 14.28 0c1.51,0 2.89,-0.08 4.26,-0.23l12.15 17.08 6.14 0zm-22.7 -21.64l-14.13 0 0 -26.65 14.13 0c10.63,0 16.25,4.85 16.25,13.36 0,8.36 -5.62,13.29 -16.25,13.29z"/>
   <path id="40" class="fil3 str1" d="M2658.59 890.57l5.93 0 -24.31 -53.16 -5.54 0 -24.3 53.16 5.84 0 6.39 -14.2 29.61 0 6.38 14.2zm-33.94 -18.76l12.75 -28.55 12.76 28.55 -25.51 0z"/>
   <polygon id="41" class="fil3 str1" points="2673.32,890.57 2708.71,890.57 2708.71,885.71 2678.94,885.71 2678.94,837.41 2673.32,837.41 "/>
   <path class="fil0" d="M298.92 745.1c-5,0 -6.25,-3.74 -6.25,-9.99l0 -346.56c0,-6.25 1.25,-9.37 6.25,-9.37 4.99,0 6.24,3.12 6.24,9.37l0 141.12 59.33 0 0 -142.99c0,-35.6 -17.49,-59.33 -59.96,-59.33l-9.99 0c-46.2,0 -63.69,26.86 -63.69,64.94l0 339.08c0,42.46 18.11,66.81 63.69,66.81l9.99 0c42.47,0 59.96,-28.1 59.96,-61.82l0 -157.98 -59.33 0 0 156.73c0,5.62 -1.25,9.99 -6.24,9.99z"/>
   <path id="1" class="fil0" d="M510.6 397.92c0,-43.09 -19.36,-70.57 -64.32,-70.57l-8.74 0c-44.96,0 -64.94,26.86 -64.94,70.57l0 330.94c0,43.71 22.48,69.32 64.94,69.32l8.74 0c40.6,0 64.32,-24.99 64.32,-69.32l0 -330.94zm-61.82 335.94c0,6.24 -2.5,9.99 -6.86,9.99 -5,0 -6.88,-3.75 -6.88,-9.99l0 -342.19c0,-7.5 1.25,-10.62 6.88,-10.62 4.99,0 6.86,3.75 6.86,10.62l0 342.19z"/>
   <polygon id="2" class="fil0" points="520.07,330.47 520.07,795.05 569.5,795.05 568.88,496.57 597.5,795.05 654.22,795.05 654.22,330.47 604.26,330.47 605.51,598.36 581.89,330.47 "/>
   <path id="3" class="fil0" d="M710.42 798.18c20.61,0 33.1,-14.99 41.22,-27.48 1.87,5.62 5.61,18.11 6.24,24.35l41.21 0 0 -271.62 -69.31 0 0 47.45 11.86 0 0 165.48c0,7.49 -3.12,11.24 -8.74,11.24 -5.62,0 -8.12,-3.75 -8.12,-11.24l0 -348.43c0,-5.63 1.25,-9.37 6.25,-9.37 6.24,0 6.86,3.74 6.86,9.37l0 120.51 58.71 0 0 -123.64c0,-29.34 -13.13,-57.45 -61.83,-57.45l-8.12 0c-48.08,0 -63.68,28.11 -63.68,61.2l0 350.93c0,31.84 14.98,58.7 46.2,58.7l1.25 0z"/>
   <path id="4" class="fil0" d="M868.4 377.31l5 0c5.61,0 6.24,2.5 6.24,8.11l0 135.51c0,5.62 -1.88,8.11 -6.87,8.11l-4.37 0 0 -151.73zm0 204.19l4.37 0c6.24,0 6.87,3.74 6.87,8.12l0 190.45c0,6.87 1.87,12.48 4.37,14.98l59.32 0 0 -1.25c-1.25,-3.74 -2.49,-8.73 -2.49,-15.6l0 -197.95c0,-19.36 -12.49,-29.98 -22.48,-33.72 9.35,-4.37 21.23,-14.36 21.23,-38.72l0 -134.25c0,-28.72 -16.24,-43.09 -37.47,-43.09l-94.91 0 0 464.58 61.19 0 0 -213.55z"/>
   <polygon id="5" class="fil0" points="949.57,330.47 949.57,795.05 1052.61,795.05 1052.61,738.85 1009.52,738.85 1009.52,579 1045.73,579 1045.73,521.55 1009.52,521.55 1009.52,386.05 1051.36,386.05 1051.36,330.47 "/>
   <path id="6" class="fil0" d="M1118.17 798.18l13.74 0c42.46,0 62.44,-24.35 62.44,-63.7l0 -119.89c0,-32.47 -7.49,-49.32 -31.22,-70.56l-32.47 -32.47c-7.5,-8.12 -9.37,-11.86 -9.37,-23.72l0 -105.54c0,-4.99 1.87,-7.49 6.25,-7.49 4.37,0 6.24,2.5 6.24,7.49l0 122.39 58.07 0 0 -124.88c0,-29.98 -13.11,-52.46 -57.45,-52.46l-13.73 0c-43.71,0 -60.58,22.48 -60.58,57.45l0 105.53c0,28.72 7.5,49.33 27.48,68.06l33.1 32.47c8.74,8.75 10.61,13.74 10.61,26.23l0 120.51c0,6.25 -1.87,10 -6.87,10 -4.99,0 -6.24,-3.75 -6.24,-10l0 -140.49 -59.95 0 0 144.87c0,36.84 19.98,56.2 59.95,56.2z"/>
   <path id="7" class="fil0" d="M1339.84 397.92c0,-43.09 -19.36,-70.57 -64.32,-70.57l-8.74 0c-44.96,0 -64.94,26.86 -64.94,70.57l0 330.94c0,43.71 22.48,69.32 64.94,69.32l8.74 0c40.6,0 64.32,-24.99 64.32,-69.32l0 -330.94zm-61.82 335.94c0,6.24 -2.5,9.99 -6.86,9.99 -5,0 -6.88,-3.75 -6.88,-9.99l0 -342.19c0,-7.5 1.25,-10.62 6.88,-10.62 4.99,0 6.86,3.75 6.86,10.62l0 342.19z"/>
   <path id="8" class="fil0" d="M1445.36 745.1c-4.99,0 -6.24,-3.74 -6.24,-9.99l0 -346.56c0,-6.25 1.25,-9.37 6.24,-9.37 5,0 6.25,3.12 6.25,9.37l0 141.12 59.32 0 0 -142.99c0,-35.6 -17.48,-59.33 -59.95,-59.33l-9.99 0c-46.2,0 -63.69,26.86 -63.69,64.94l0 339.08c0,42.46 18.11,66.81 63.69,66.81l9.99 0c42.47,0 59.95,-28.1 59.95,-61.82l0 -157.98 -59.32 0 0 156.73c0,5.62 -1.25,9.99 -6.25,9.99z"/>
   <path id="9" class="fil0" d="M1587.11 745.1c-4.99,0 -6.24,-3.74 -6.24,-9.99l0 -346.56c0,-6.25 1.25,-9.37 6.24,-9.37 5,0 6.25,3.12 6.25,9.37l0 141.12 59.32 0 0 -142.99c0,-35.6 -17.49,-59.33 -59.95,-59.33l-9.99 0c-46.21,0 -63.69,26.86 -63.69,64.94l0 339.08c0,42.46 18.11,66.81 63.69,66.81l9.99 0c42.46,0 59.95,-28.1 59.95,-61.82l0 -157.98 -59.32 0 0 156.73c0,5.62 -1.25,9.99 -6.25,9.99z"/>
   <polygon id="10" class="fil0" points="1660.8,330.47 1660.8,795.05 1763.83,795.05 1763.83,738.85 1720.74,738.85 1720.74,579 1756.95,579 1756.95,521.55 1720.74,521.55 1720.74,386.05 1762.58,386.05 1762.58,330.47 "/>
   <path id="11" class="fil0" d="M1868.09 647.69l-14.98 0 7.49 -196.08 7.49 196.08zm5.62 147.36l58.7 0 -31.23 -464.58 -77.43 0 -29.34 464.58 52.46 0 3.74 -94.28 19.36 0 3.74 94.28z"/>
   <path id="12" class="fil0" d="M1996.73 377.31l5 0c5.61,0 6.24,2.5 6.24,8.11l0 135.51c0,5.62 -1.88,8.11 -6.88,8.11l-4.36 0 0 -151.73zm0 204.19l4.36 0c6.25,0 6.88,3.74 6.88,8.12l0 190.45c0,6.87 1.87,12.48 4.37,14.98l59.32 0 0 -1.25c-1.25,-3.74 -2.49,-8.73 -2.49,-15.6l0 -197.95c0,-19.36 -12.49,-29.98 -22.48,-33.72 9.35,-4.37 21.23,-14.36 21.23,-38.72l0 -134.25c0,-28.72 -16.24,-43.09 -37.47,-43.09l-94.91 0 0 464.58 61.19 0 0 -213.55z"/>
   <path id="13" class="fil0" d="M2125.36 798.18c20.61,0 33.1,-14.99 41.21,-27.48 1.88,5.62 5.62,18.11 6.25,24.35l41.21 0 0 -271.62 -69.32 0 0 47.45 11.87 0 0 165.48c0,7.49 -3.12,11.24 -8.74,11.24 -5.62,0 -8.12,-3.75 -8.12,-11.24l0 -348.43c0,-5.63 1.25,-9.37 6.25,-9.37 6.24,0 6.86,3.74 6.86,9.37l0 120.51 58.71 0 0 -123.64c0,-29.34 -13.13,-57.45 -61.83,-57.45l-8.12 0c-48.08,0 -63.69,28.11 -63.69,61.2l0 350.93c0,31.84 14.99,58.7 46.21,58.7l1.25 0z"/>
   <polygon id="14" class="fil0" points="2273.97,727.61 2221.51,727.61 2221.51,795.05 2273.97,795.05 "/>
   <path class="fil4" d="M2300.05 795.05l73.87 0 0 -11.21 -62 0 0 -51.44c0,-67.27 17.81,-101.57 34.29,-133.23 14.52,-27.04 27.71,-52.1 27.71,-94.31l0 -132.57c0,-27.04 -15.17,-43.53 -36.93,-43.53 -21.11,0 -36.94,16.49 -36.94,43.53l0 135.87 11.87 0 0 -135.21c0,-23.74 11.87,-32.32 25.07,-32.32 13.19,0 25.06,8.58 25.06,32.32l0 128.61c0,42.21 -13.19,67.27 -27.71,94.31 -16.48,31.66 -34.29,65.95 -34.29,133.23l0 65.95z"/>
   <path id="1" class="fil4" d="M2477.46 372.29c0,-26.38 -15.17,-42.87 -36.93,-42.87 -21.77,0 -36.93,15.83 -36.93,42.87l0 383.85c0,26.38 15.16,42.87 36.93,42.87 21.76,0 36.93,-15.83 36.93,-42.87l0 -383.85zm-11.87 0l0 383.19c0,23.75 -11.87,32.32 -25.06,32.32 -13.19,0 -25.06,-8.57 -25.06,-32.32l0 -383.19c0,-23.08 11.87,-31.66 25.06,-31.66 13.19,0 25.06,8.58 25.06,31.66z"/>
   <path id="2" class="fil4" d="M2506.48 795.05l73.87 0 0 -11.21 -62 0 0 -51.44c0,-67.27 17.81,-101.57 34.29,-133.23 14.51,-27.04 27.71,-52.1 27.71,-94.31l0 -132.57c0,-27.04 -15.18,-43.53 -36.94,-43.53 -21.11,0 -36.93,16.49 -36.93,43.53l0 135.87 11.87 0 0 -135.21c0,-23.74 11.87,-32.32 25.06,-32.32 13.19,0 25.07,8.58 25.07,32.32l0 128.61c0,42.21 -13.2,67.27 -27.71,94.31 -16.48,31.66 -34.29,65.95 -34.29,133.23l0 65.95z"/>
   <path id="3" class="fil4" d="M2621.89 527.94l0 -154.99c0,-23.08 11.87,-31.66 25.07,-31.66 13.19,0 25.06,8.58 25.06,31.66l0 102.23 11.87 0 0 -102.89c0,-26.38 -15.17,-42.87 -36.93,-42.87 -21.77,0 -36.94,15.83 -36.94,42.87l0 383.85c0,27.04 15.17,42.87 36.94,42.87 21.76,0 36.93,-15.83 36.93,-42.87l0 -207.75c0,-27.04 -13.19,-42.87 -32.32,-42.87 -13.19,0 -23.74,7.91 -28.36,22.42l-1.32 0zm0 21.11c0,-23.75 11.87,-32.32 25.07,-32.32 13.19,0 25.06,8.57 25.06,32.32l0 207.09c0,23.09 -11.87,31.66 -25.06,31.66 -13.2,0 -25.07,-8.57 -25.07,-31.66l0 -207.09z"/>
   <g id="_1433875867552">
    <path class="fil5" d="M2844.1 454.06l-4.06 -1.98 0 -223.77 4.06 -1.99 0 227.74zm39.05 -227.74l4.07 1.99 0 87.37 -2.03 1.39 -2.04 -1.39 0 -89.36zm0 135.25l2.04 -1.4 2.03 1.4 0 90.51 -4.07 1.98 0 -92.49zm19.58 100.19l0 -105.03 -17.54 -12.05 -17.54 12.05 0 104.9 -4.02 1.96 -4.03 -1.96 0 -242.88 4.03 -1.97 4.02 1.97 0 101.77 17.54 12.05 17.53 -12.05 0.01 0 0 -101.9 -39.1 -19.08 -39.1 19.08 0 243.14 39.1 19.09 39.1 -19.09z"/>
    <path class="fil5" d="M2974.22 270.79l4.09 2 0 42.88 -2.04 1.4 -2.05 -1.4 0 -44.88zm-39.03 157.86l-4.07 1.99 0 -180.9 4.07 1.99 0 176.92zm39.03 -67.07l2.05 -1.4 2.04 1.4 0 46.01 -4.09 2 0 -48.01zm-15.51 -41.06l17.56 12.06 17.54 -12.06 0 -57.41 -78.19 -38.19 0 230.54 78.19 -38.19 0 -60.55 -17.54 -12.05 -17.56 12.05 0 60.44 -8.02 3.92 0 -73.75 14.23 0 0 -15.51 -14.23 0 0 -72.52 8.02 3.92 0 57.3z"/>
    <path class="fil5" d="M2752.98 409.56l-4.03 -1.97 0 -134.8 4.03 -1.97 0 138.74zm39.13 -48.01l2.01 -1.38 2.01 1.38 0 69.09 -4.02 -1.96 0 -67.13zm0 -109.84l4.02 -1.97 0 65.95 -2.01 1.38 -2.01 -1.38 0 -63.98zm-15.5 68.81l0 0 17.51 12.03 17.51 -12.03 0.01 0 0 0 0 -95.6 -78.19 38.19 0 154.16 78.19 38.19 0 -98.73 0 -0.04 -0.06 0 -17.46 -11.99 -17.46 11.99 -0.05 0 0 0.04 0 64.37 -8.13 -3.96 0 -153.89 8.13 -3.97 0 61.24 0 0z"/>
    <polygon class="fil5" points="2902.95,210.49 2863.74,185.99 2824.53,210.49 2863.74,193.23 "/>
   </g>
  </g>
 </g>
</svg>
