<?xml version="1.0" encoding="UTF-8"?>
<!DOCTYPE svg PUBLIC "-//W3C//DTD SVG 1.1//EN" "http://www.w3.org/Graphics/SVG/1.1/DTD/svg11.dtd">
<!-- Creator: CorelDRAW 2020 (64-Bit) -->
<svg xmlns="http://www.w3.org/2000/svg" xml:space="preserve" width="100%" height="100%" version="1.1" style="shape-rendering:geometricPrecision; text-rendering:geometricPrecision; image-rendering:optimizeQuality; fill-rule:evenodd; clip-rule:evenodd"
viewBox="1800 11800 14400 5800"
 xmlns:xlink="http://www.w3.org/1999/xlink"
 xmlns:xodm="http://www.corel.com/coreldraw/odm/2003">
 <defs>
  <style type="text/css">
   <![CDATA[
    .str0 {stroke:#E7BB70;stroke-width:388.06;stroke-miterlimit:22.9256}
    .str1 {stroke:#E7BB70;stroke-width:7.62;stroke-miterlimit:22.9256}
    .fil1 {fill:none}
    .fil3 {fill:none;fill-rule:nonzero}
    .fil0 {fill:#FEFEFE;fill-rule:nonzero}
    .fil2 {fill:#E7BB70;fill-rule:nonzero}
    .fil5 {fill:#ECBC68;fill-rule:nonzero}
    .fil4 {fill:#F8F0DD;fill-rule:nonzero}
   ]]>
  </style>
    <clipPath id="id0">
     <path d="M3315.17 12217.92l12051.54 0 0 5265.21 -12051.54 0 0 -5265.21z"/>
    </clipPath>
 </defs>
 <g id="Capa_x0020_1">
  <metadata id="CorelCorpID_0Corel-Layer"/>
  <path class="fil0" d="M-37584.25 22229.98c-16.25,0 -31.65,-2.9 -46.23,-8.68 -14.57,-5.79 -27.42,-14.01 -38.54,-24.69 -11.13,-10.68 -19.97,-23.48 -26.53,-38.39 -6.57,-14.9 -9.85,-31.37 -9.85,-49.38l0 -0.67c0,-17.36 3.17,-33.48 9.52,-48.4 6.33,-14.9 15.12,-27.8 26.36,-38.71 11.23,-10.9 24.41,-19.41 39.54,-25.53 15.13,-6.12 31.37,-9.17 48.73,-9.17 12.9,0 24.75,1.5 35.54,4.5 10.79,3 20.58,7.18 29.37,12.51 8.79,5.35 16.57,11.74 23.36,19.19 6.79,7.46 12.63,15.63 17.52,24.53l-64.41 37.71c-4.45,-8.45 -9.95,-15.29 -16.52,-20.52 -6.56,-5.23 -15.18,-7.84 -25.86,-7.84 -6.68,0 -12.68,1.33 -18.03,4 -5.33,2.68 -9.9,6.34 -13.68,11.01 -3.78,4.68 -6.73,10.13 -8.84,16.36 -2.12,6.22 -3.17,12.79 -3.17,19.69l0 0.67c0,7.56 1.05,14.51 3.17,20.85 2.11,6.34 5.12,11.8 9.01,16.36 3.89,4.55 8.51,8.12 13.85,10.68 5.34,2.55 11.23,3.83 17.69,3.83 11.12,0 20.02,-2.72 26.69,-8.17 6.68,-5.45 12.46,-12.52 17.36,-21.19l64.41 36.37c-4.9,8.68 -10.68,16.85 -17.36,24.53 -6.67,7.68 -14.51,14.35 -23.52,20.03 -9.02,5.66 -19.25,10.18 -30.71,13.51 -11.46,3.33 -24.41,5.01 -38.87,5.01z"/>
  <polygon id="1" class="fil0" points="-37458.77,21991.36 -37259.54,21991.36 -37259.54,22055.44 -37382.01,22055.44 -37382.01,22079.13 -37267.88,22079.13 -37267.88,22135.53 -37382.01,22135.53 -37382.01,22160.89 -37257.87,22160.89 -37257.87,22224.97 -37458.77,22224.97 "/>
  <polygon id="2" class="fil0" points="-37236.84,21991.36 -37163.75,21991.36 -37080.66,22094.48 -37080.66,21991.36 -37003.23,21991.36 -37003.23,22224.97 -37072.65,22224.97 -37159.42,22117.17 -37159.42,22224.97 -37236.84,22224.97 "/>
  <polygon id="3" class="fil0" points="-36916.79,22057.44 -36985.54,22057.44 -36985.54,21991.36 -36769.95,21991.36 -36769.95,22057.44 -36838.7,22057.44 -36838.7,22224.97 -36916.79,22224.97 "/>
  <path id="4" class="fil0" d="M-36640.46 22102.49c9.34,0 16.69,-2 22.02,-6 5.35,-4.01 8.01,-9.57 8.01,-16.69l0 -0.67c0,-7.57 -2.66,-13.18 -8.01,-16.86 -5.33,-3.66 -12.57,-5.5 -21.69,-5.5l-34.04 0 0 45.72 33.71 0zm-111.8 -111.13l114.13 0c20.92,0 38.11,2.39 51.57,7.18 13.45,4.78 24.3,11.29 32.53,19.51 7.13,7.13 12.46,15.14 16.02,24.04 3.57,8.89 5.34,19.35 5.34,31.36l0 0.68c0,17.13 -4.11,31.58 -12.34,43.38 -8.24,11.8 -19.47,21.13 -33.71,28.03l54.4 79.43 -89.11 0 -44.05 -66.75 -0.67 0 -16.02 0 0 66.75 -78.09 0 0 -233.61z"/>
  <path id="5" class="fil0" d="M-36391.16 22160.89c7.33,0 14.01,-1.44 20.02,-4.33 6,-2.89 11.13,-6.74 15.35,-11.52 4.22,-4.78 7.46,-10.29 9.68,-16.52 2.22,-6.23 3.33,-12.79 3.33,-19.68l0 -0.67c0,-6.9 -1.16,-13.52 -3.5,-19.86 -2.33,-6.34 -5.62,-11.96 -9.84,-16.86 -4.23,-4.89 -9.35,-8.79 -15.35,-11.68 -6.01,-2.89 -12.8,-4.33 -20.36,-4.33 -7.35,0 -14.02,1.44 -20.03,4.33 -6.01,2.89 -11.12,6.74 -15.34,11.52 -4.24,4.78 -7.46,10.29 -9.68,16.52 -2.24,6.22 -3.35,12.79 -3.35,19.69l0 0.67c0,6.89 1.17,13.51 3.51,19.85 2.34,6.34 5.62,11.96 9.85,16.86 4.22,4.89 9.34,8.79 15.35,11.68 6,2.89 12.79,4.33 20.36,4.33zm-0.67 69.09c-18.03,0 -34.76,-3.12 -50.23,-9.34 -15.46,-6.24 -28.92,-14.81 -40.38,-25.71 -11.46,-10.9 -20.41,-23.75 -26.87,-38.54 -6.44,-14.79 -9.68,-30.65 -9.68,-47.55l0 -0.67c0,-16.91 3.29,-32.76 9.85,-47.56 6.57,-14.8 15.58,-27.7 27.04,-38.71 11.45,-11.02 24.97,-19.69 40.54,-26.04 15.58,-6.33 32.37,-9.5 50.4,-9.5 18.01,0 34.76,3.11 50.22,9.33 15.47,6.24 28.92,14.81 40.38,25.71 11.46,10.9 20.42,23.75 26.86,38.54 6.46,14.8 9.68,30.65 9.68,47.56l0 0.67c0,16.9 -3.28,32.76 -9.84,47.55 -6.56,14.8 -15.57,27.7 -27.03,38.71 -11.46,11.01 -24.97,19.69 -40.55,26.04 -15.57,6.33 -32.38,9.51 -50.39,9.51z"/>
  <path id="6" class="fil0" d="M-37584.25 22598.75c-16.25,0 -31.65,-2.89 -46.23,-8.68 -14.57,-5.78 -27.42,-14.01 -38.54,-24.69 -11.13,-10.68 -19.97,-23.47 -26.53,-38.38 -6.57,-14.91 -9.85,-31.37 -9.85,-49.39l0 -0.67c0,-17.36 3.17,-33.48 9.52,-48.39 6.33,-14.91 15.12,-27.81 26.36,-38.72 11.23,-10.9 24.41,-19.41 39.54,-25.52 15.13,-6.13 31.37,-9.18 48.73,-9.18 12.9,0 24.75,1.5 35.54,4.5 10.79,3.01 20.58,7.18 29.37,12.52 8.79,5.34 16.57,11.74 23.36,19.18 6.79,7.46 12.63,15.64 17.52,24.54l-64.41 37.71c-4.45,-8.46 -9.95,-15.29 -16.52,-20.53 -6.56,-5.22 -15.18,-7.84 -25.86,-7.84 -6.68,0 -12.68,1.33 -18.03,4.01 -5.33,2.67 -9.9,6.33 -13.68,11.01 -3.78,4.67 -6.73,10.13 -8.84,16.35 -2.12,6.23 -3.17,12.79 -3.17,19.69l0 0.67c0,7.57 1.05,14.51 3.17,20.86 2.11,6.34 5.12,11.79 9.01,16.35 3.89,4.56 8.51,8.12 13.85,10.68 5.34,2.56 11.23,3.84 17.69,3.84 11.12,0 20.02,-2.73 26.69,-8.18 6.68,-5.45 12.46,-12.51 17.36,-21.19l64.41 36.37c-4.9,8.68 -10.68,16.86 -17.36,24.54 -6.67,7.67 -14.51,14.35 -23.52,20.02 -9.02,5.67 -19.25,10.18 -30.71,13.52 -11.46,3.33 -24.41,5 -38.87,5z"/>
  <path id="7" class="fil0" d="M-37346.97 22471.27c9.34,0 16.69,-2.01 22.02,-6.01 5.35,-4 8.01,-9.57 8.01,-16.69l0 -0.67c0,-7.56 -2.66,-13.18 -8.01,-16.85 -5.33,-3.66 -12.57,-5.51 -21.69,-5.51l-34.04 0 0 45.73 33.71 0zm-111.8 -111.14l114.13 0c20.92,0 38.11,2.4 51.57,7.18 13.45,4.79 24.3,11.29 32.53,19.52 7.13,7.13 12.46,15.13 16.02,24.03 3.57,8.9 5.34,19.36 5.34,31.37l0 0.67c0,17.14 -4.11,31.59 -12.34,43.39 -8.24,11.79 -19.47,21.13 -33.71,28.02l54.4 79.44 -89.11 0 -44.05 -66.75 -0.67 0 -16.02 0 0 66.75 -78.09 0 0 -233.62z"/>
  <polygon id="8" class="fil0" points="-37219.49,22360.13 -37141.39,22360.13 -37141.39,22593.75 -37219.49,22593.75 "/>
  <path id="9" class="fil0" d="M-37013.58 22598.08c-23.81,0 -46,-3.27 -66.58,-9.84 -20.58,-6.56 -38.32,-16.41 -53.22,-29.54l41.71 -49.72c12.68,9.79 26.03,16.79 40.05,21.02 14.01,4.23 27.92,6.34 41.72,6.34 7.11,0 12.23,-0.89 15.35,-2.67 3.11,-1.78 4.67,-4.22 4.67,-7.33l0 -0.68c0,-3.33 -2.29,-6.11 -6.84,-8.34 -4.57,-2.23 -13.07,-4.56 -25.53,-7.01 -13.13,-2.66 -25.65,-5.78 -37.55,-9.34 -11.9,-3.56 -22.36,-8.13 -31.37,-13.68 -9.01,-5.57 -16.18,-12.52 -21.53,-20.86 -5.33,-8.35 -8,-18.75 -8,-31.21l0 -0.67c0,-11.12 2.17,-21.47 6.5,-31.04 4.35,-9.55 10.68,-17.9 19.03,-25.02 8.34,-7.13 18.69,-12.68 31.03,-16.68 12.35,-4.01 26.53,-6.02 42.56,-6.02 22.69,0 42.54,2.67 59.56,8.02 17.03,5.33 32.32,13.34 45.89,24.02l-38.04 52.74c-11.12,-8.02 -22.86,-13.86 -35.21,-17.53 -12.35,-3.67 -23.98,-5.5 -34.88,-5.5 -5.78,0 -10.07,0.89 -12.85,2.67 -2.78,1.77 -4.17,4.11 -4.17,7.01l0 0.67c0,1.55 0.45,3 1.34,4.33 0.89,1.33 2.5,2.61 4.83,3.83 2.35,1.23 5.51,2.4 9.52,3.52 4.01,1.11 9.12,2.22 15.35,3.33 14.91,2.67 28.48,5.89 40.71,9.68 12.24,3.78 22.75,8.62 31.54,14.51 8.79,5.9 15.58,12.96 20.36,21.2 4.78,8.23 7.18,18.24 7.18,30.03l0 0.67c0,12.24 -2.46,23.25 -7.35,33.04 -4.89,9.79 -11.79,18.07 -20.69,24.86 -8.9,6.79 -19.75,12.02 -32.54,15.69 -12.79,3.67 -26.97,5.5 -42.55,5.5z"/>
  <polygon id="10" class="fil0" points="-36832.69,22426.21 -36901.44,22426.21 -36901.44,22360.13 -36685.85,22360.13 -36685.85,22426.21 -36754.6,22426.21 -36754.6,22593.75 -36832.69,22593.75 "/>
  <polygon id="11" class="fil0" points="-36667.5,22360.13 -36589.4,22360.13 -36589.4,22593.75 -36667.5,22593.75 "/>
  <path id="12" class="fil0" d="M-36421.21 22506.98l-21.35 -56.73 -21.36 56.73 42.71 0zm-59.4 -148.52l77.43 0 98.45 235.29 -84.77 0 -12.35 -31.37 -81.77 0 -12.01 31.37 -83.43 0 98.45 -235.29z"/>
  <polygon id="13" class="fil0" points="-36295.05,22360.13 -36221.97,22360.13 -36138.87,22463.26 -36138.87,22360.13 -36061.44,22360.13 -36061.44,22593.75 -36130.87,22593.75 -36217.63,22485.95 -36217.63,22593.75 -36295.05,22593.75 "/>
  <path id="14" class="fil0" d="M-35912.26 22529.67c7.34,0 14.01,-1.44 20.02,-4.34 6.01,-2.89 11.13,-6.73 15.35,-11.52 4.23,-4.78 7.46,-10.29 9.68,-16.51 2.23,-6.24 3.34,-12.79 3.34,-19.69l0 -0.67c0,-6.9 -1.16,-13.51 -3.51,-19.86 -2.33,-6.33 -5.61,-11.96 -9.84,-16.85 -4.23,-4.9 -9.34,-8.79 -15.35,-11.68 -6.01,-2.9 -12.79,-4.34 -20.36,-4.34 -7.35,0 -14.01,1.44 -20.03,4.34 -6,2.89 -11.12,6.73 -15.34,11.52 -4.23,4.77 -7.46,10.29 -9.68,16.51 -2.23,6.23 -3.34,12.79 -3.34,19.69l0 0.67c0,6.9 1.17,13.51 3.5,19.86 2.34,6.33 5.63,11.96 9.85,16.85 4.22,4.9 9.35,8.79 15.35,11.68 6.01,2.9 12.8,4.34 20.36,4.34zm-0.67 69.08c-18.02,0 -34.76,-3.11 -50.22,-9.34 -15.47,-6.23 -28.93,-14.8 -40.39,-25.7 -11.45,-10.9 -20.41,-23.75 -26.86,-38.55 -6.45,-14.79 -9.68,-30.64 -9.68,-47.55l0 -0.67c0,-16.9 3.28,-32.76 9.85,-47.55 6.56,-14.81 15.57,-27.71 27.03,-38.72 11.45,-11.02 24.97,-19.69 40.55,-26.03 15.57,-6.34 32.37,-9.51 50.39,-9.51 18.02,0 34.76,3.11 50.23,9.34 15.46,6.23 28.91,14.8 40.37,25.7 11.46,10.9 20.42,23.75 26.87,38.55 6.45,14.79 9.68,30.64 9.68,47.55l0 0.67c0,16.91 -3.29,32.76 -9.84,47.55 -6.57,14.81 -15.58,27.71 -27.04,38.72 -11.46,11.01 -24.97,19.69 -40.54,26.03 -15.58,6.34 -32.38,9.51 -50.4,9.51z"/>
  <polygon id="15" class="fil0" points="-37700.06,22728.91 -37500.83,22728.91 -37500.83,22792.99 -37623.3,22792.99 -37623.3,22816.68 -37509.17,22816.68 -37509.17,22873.08 -37623.3,22873.08 -37623.3,22898.44 -37499.16,22898.44 -37499.16,22962.52 -37700.06,22962.52 "/>
  <path id="16" class="fil0" d="M-37377.68 22966.85c-23.81,0 -46,-3.27 -66.58,-9.83 -20.58,-6.57 -38.32,-16.42 -53.23,-29.54l41.72 -49.73c12.68,9.79 26.03,16.8 40.05,21.02 14.01,4.24 27.92,6.35 41.72,6.35 7.11,0 12.23,-0.89 15.35,-2.67 3.11,-1.79 4.67,-4.23 4.67,-7.34l0 -0.67c0,-3.33 -2.29,-6.12 -6.84,-8.35 -4.57,-2.22 -13.07,-4.55 -25.53,-7 -13.13,-2.67 -25.65,-5.79 -37.55,-9.34 -11.9,-3.57 -22.36,-8.13 -31.37,-13.69 -9.01,-5.56 -16.18,-12.52 -21.53,-20.85 -5.33,-8.35 -8,-18.75 -8,-31.21l0 -0.67c0,-11.12 2.17,-21.47 6.5,-31.04 4.35,-9.56 10.68,-17.91 19.03,-25.02 8.34,-7.13 18.69,-12.69 31.03,-16.69 12.35,-4 26.53,-6.02 42.56,-6.02 22.69,0 42.54,2.68 59.56,8.02 17.03,5.34 32.32,13.34 45.89,24.02l-38.04 52.74c-11.12,-8.02 -22.86,-13.85 -35.21,-17.52 -12.35,-3.68 -23.98,-5.51 -34.88,-5.51 -5.78,0 -10.07,0.89 -12.85,2.67 -2.78,1.77 -4.17,4.12 -4.17,7.01l0 0.67c0,1.55 0.45,3 1.34,4.33 0.89,1.34 2.5,2.62 4.83,3.84 2.35,1.23 5.51,2.39 9.52,3.51 4.01,1.11 9.12,2.22 15.35,3.33 14.91,2.68 28.48,5.9 40.71,9.68 12.24,3.79 22.75,8.62 31.54,14.52 8.79,5.89 15.58,12.96 20.36,21.2 4.78,8.22 7.18,18.23 7.18,30.02l0 0.67c0,12.24 -2.46,23.25 -7.35,33.04 -4.89,9.79 -11.79,18.08 -20.69,24.87 -8.9,6.78 -19.75,12.02 -32.54,15.68 -12.79,3.67 -26.97,5.5 -42.55,5.5z"/>
  <path id="17" class="fil0" d="M-37157.41 22843.38c10.01,0 18.08,-2.17 24.2,-6.51 6.11,-4.34 9.17,-10.73 9.17,-19.19l0 -0.67c0,-8.45 -2.89,-14.84 -8.67,-19.19 -5.79,-4.33 -13.91,-6.5 -24.37,-6.5l-21.36 0 0 52.06 21.03 0zm-99.12 -114.47l105.13 0c15.57,0 29.76,1.72 42.55,5.17 12.79,3.45 23.75,8.62 32.87,15.52 9.13,6.89 16.24,15.57 21.36,26.03 5.11,10.46 7.67,22.58 7.67,36.37l0 0.67c0,14.02 -2.56,26.43 -7.67,37.22 -5.12,10.79 -12.34,19.86 -21.69,27.19 -9.35,7.35 -20.53,12.85 -33.54,16.53 -13.02,3.66 -27.43,5.5 -43.22,5.5l-25.37 0 0 63.41 -78.09 0 0 -233.61z"/>
  <polygon id="18" class="fil0" points="-37030.25,22728.91 -36831.02,22728.91 -36831.02,22792.99 -36953.49,22792.99 -36953.49,22816.68 -36839.36,22816.68 -36839.36,22873.08 -36953.49,22873.08 -36953.49,22898.44 -36829.35,22898.44 -36829.35,22962.52 -37030.25,22962.52 "/>
  <path id="19" class="fil0" d="M-36696.52 22840.04c9.34,0 16.69,-2 22.02,-6.01 5.35,-4 8.01,-9.56 8.01,-16.68l0 -0.67c0,-7.57 -2.66,-13.18 -8.01,-16.86 -5.33,-3.66 -12.57,-5.5 -21.69,-5.5l-34.04 0 0 45.72 33.71 0zm-111.8 -111.13l114.13 0c20.92,0 38.11,2.39 51.57,7.18 13.45,4.78 24.3,11.29 32.53,19.51 7.13,7.13 12.46,15.14 16.02,24.03 3.57,8.9 5.34,19.36 5.34,31.37l0 0.67c0,17.14 -4.11,31.59 -12.34,43.39 -8.24,11.79 -19.47,21.13 -33.71,28.03l54.4 79.43 -89.11 0 -44.05 -66.75 -0.67 0 -16.02 0 0 66.75 -78.09 0 0 -233.61z"/>
  <path id="20" class="fil0" d="M-36428.88 22875.75l-21.35 -56.73 -21.35 56.73 42.7 0zm-59.4 -148.51l77.43 0 98.45 235.28 -84.77 0 -12.35 -31.37 -81.76 0 -12.01 31.37 -83.44 0 98.45 -235.28z"/>
  <polygon id="21" class="fil0" points="-36302.72,22728.91 -36229.64,22728.91 -36146.54,22832.03 -36146.54,22728.91 -36069.11,22728.91 -36069.11,22962.52 -36138.53,22962.52 -36225.3,22854.72 -36225.3,22962.52 -36302.72,22962.52 "/>
  <polygon id="22" class="fil0" points="-36049.75,22907.79 -35943.96,22792.99 -36045.75,22792.99 -36045.75,22728.91 -35831.82,22728.91 -35831.82,22783.64 -35937.62,22898.44 -35831.82,22898.44 -35831.82,22962.52 -36049.75,22962.52 "/>
  <path id="23" class="fil0" d="M-35671.97 22875.75l-21.35 -56.73 -21.36 56.73 42.71 0zm-59.4 -148.51l77.43 0 98.45 235.28 -84.77 0 -12.35 -31.37 -81.77 0 -12.01 31.37 -83.43 0 98.45 -235.28z"/>
  <g id="_1433881542224">
   <g>
   </g>
   <g style="clip-path:url(#id0)">
    <g id="_1433881484240">
     <path class="fil1 str0" d="M2023.79 13978.48c1441.51,-659.44 1952.94,-629.89 2031.58,-500.86 114.26,187.46 -756.1,821.59 -1607.5,1827.81 1875.21,-572.64 2762.45,-1174.02 3025.6,-545.56 378.55,904.03 -2545.71,2358.4 -3901.11,3009.91"/>
    </g>
   </g>
   <polygon class="fil1" points="3315.17,12217.92 15366.71,12217.92 15366.71,17483.13 3315.17,17483.13 "/>
   <polygon class="fil2" points="11001.45,16452.34 11001.45,16357.86 11132.98,16357.86 11132.98,16334.97 11001.45,16334.97 11001.45,16244.5 11148.96,16244.5 11148.96,16221.25 10974.55,16221.25 10974.55,16475.59 11154.42,16475.59 11154.42,16452.34 "/>
   <polygon id="1" class="fil2" points="11405.12,16475.59 11308.11,16344.06 11398.22,16221.25 11369.15,16221.25 11292.85,16325.17 11216.18,16221.25 11185.29,16221.25 11275.77,16344.78 11179.12,16475.59 11210.01,16475.59 11291.76,16363.68 11373.88,16475.59 "/>
   <path id="2" class="fil2" d="M11539.21 16221.25l-95.21 0 0 254.34 26.89 0 0 -80.3 68.32 0c64.66,0 103.91,-32.7 103.91,-86.84 0,-54.5 -39.25,-87.2 -103.91,-87.2zm-0.74 150.43l-67.58 0 0 -127.18 67.58 0c50.87,0 77.77,23.25 77.77,63.95 0,39.97 -26.9,63.23 -77.77,63.23z"/>
   <path id="3" class="fil2" d="M11878.56 16475.59l28.35 0 -116.28 -254.34 -26.52 0 -116.27 254.34 27.98 0 30.52 -67.94 141.71 0 30.51 67.94zm-162.41 -89.75l61.04 -136.61 61.05 136.61 -122.09 0z"/>
   <polygon id="4" class="fil2" points="12135.1,16221.25 12135.1,16427.63 11971.23,16221.25 11949.06,16221.25 11949.06,16475.59 11975.95,16475.59 11975.95,16269.2 12139.46,16475.59 12161.62,16475.59 12161.62,16221.25 "/>
   <path id="5" class="fil2" d="M12314.6 16477.77c65.04,0 94.83,-31.98 94.83,-69.4 0,-92.65 -156.61,-50.51 -156.61,-120.27 0,-25.43 20.72,-46.14 67.22,-46.14 22.53,0 47.97,6.91 69.77,21.07l9.09 -21.43c-20.35,-14.17 -50.15,-22.53 -78.86,-22.53 -64.68,0 -93.74,32.34 -93.74,69.76 0,94.11 156.6,51.23 156.6,120.99 0,25.07 -20.71,45.06 -68.3,45.06 -33.43,0 -65.77,-13.08 -83.94,-30.89l-10.54 20.71c18.9,19.63 56.32,33.07 94.48,33.07z"/>
   <polygon id="6" class="fil2" points="12467.93,16475.59 12494.82,16475.59 12494.82,16221.25 12467.93,16221.25 "/>
   <path id="7" class="fil2" d="M12665.23 16200.53l25.43 0 58.86 -45.05 -34.51 0 -49.78 45.05zm23.62 277.24c76.3,0 133.35,-54.87 133.35,-129.35 0,-74.49 -57.05,-129.35 -133.35,-129.35 -77.03,0 -133.71,55.23 -133.71,129.35 0,74.12 56.68,129.35 133.71,129.35zm0 -23.98c-61.41,0 -107.19,-44.69 -107.19,-105.37 0,-60.68 45.78,-105.37 107.19,-105.37 61.04,0 106.45,44.69 106.45,105.37 0,60.68 -45.41,105.37 -106.45,105.37z"/>
   <polygon id="8" class="fil2" points="13068.54,16221.25 13068.54,16427.63 12904.67,16221.25 12882.5,16221.25 12882.5,16475.59 12909.4,16475.59 12909.4,16269.2 13072.91,16475.59 13095.07,16475.59 13095.07,16221.25 "/>
   <path id="9" class="fil2" d="M13343.24 16477.77c65.04,0 94.84,-31.98 94.84,-69.4 0,-92.65 -156.61,-50.51 -156.61,-120.27 0,-25.43 20.71,-46.14 67.22,-46.14 22.53,0 47.96,6.91 69.76,21.07l9.09 -21.43c-20.35,-14.17 -50.15,-22.53 -78.85,-22.53 -64.68,0 -93.75,32.34 -93.75,69.76 0,94.11 156.6,51.23 156.6,120.99 0,25.07 -20.71,45.06 -68.3,45.06 -33.43,0 -65.77,-13.08 -83.93,-30.89l-10.54 20.71c18.89,19.63 56.32,33.07 94.47,33.07z"/>
   <path id="10" class="fil2" d="M13607.76 16477.77c76.3,0 133.35,-54.87 133.35,-129.35 0,-74.49 -57.05,-129.35 -133.35,-129.35 -77.03,0 -133.71,55.23 -133.71,129.35 0,74.12 56.68,129.35 133.71,129.35zm0 -23.98c-61.4,0 -107.19,-44.69 -107.19,-105.37 0,-60.68 45.79,-105.37 107.19,-105.37 61.05,0 106.46,44.69 106.46,105.37 0,60.68 -45.41,105.37 -106.46,105.37z"/>
   <path id="11" class="fil2" d="M13961.66 16344.42c23.25,-9.45 38.88,-28.7 38.88,-57.77 0,-41.42 -32.7,-65.4 -89.38,-65.4l-109.74 0 0 254.34 117 0c63.59,0 95.56,-24.71 95.56,-67.94 0,-34.52 -19.62,-55.96 -52.32,-63.23zm-52.33 -101.01c40.7,0 64.32,15.63 64.32,46.14 0,30.53 -23.62,46.15 -64.32,46.15l-81.02 0 0 -92.29 81.02 0zm8.72 210.02l-89.74 0 0 -95.57 89.74 0c44.7,0 69.05,14.54 69.05,47.61 0,33.42 -24.35,47.96 -69.05,47.96z"/>
   <path id="12" class="fil2" d="M14278.5 16475.59l-62.13 -87.2c37.06,-11.99 58.14,-39.97 58.14,-79.94 0,-54.5 -39.25,-87.2 -103.92,-87.2l-95.2 0 0 254.34 26.89 0 0 -80.66 68.31 0c7.27,0 13.8,-0.36 20.34,-1.09l58.14 81.75 29.43 0zm-108.64 -103.55l-67.58 0 0 -127.54 67.58 0c50.87,0 77.76,23.25 77.76,63.95 0,39.97 -26.89,63.59 -77.76,63.59z"/>
   <polygon id="13" class="fil2" points="14364.98,16452.34 14364.98,16357.86 14496.51,16357.86 14496.51,16334.97 14364.98,16334.97 14364.98,16244.5 14512.49,16244.5 14512.49,16221.25 14338.08,16221.25 14338.08,16475.59 14517.95,16475.59 14517.95,16452.34 "/>
   <polygon id="14" class="fil2" points="14767.2,16221.25 14767.2,16427.63 14603.33,16221.25 14581.16,16221.25 14581.16,16475.59 14608.06,16475.59 14608.06,16269.2 14771.57,16475.59 14793.73,16475.59 14793.73,16221.25 "/>
   <path id="15" class="fil2" d="M15066.6 16475.59l28.35 0 -116.28 -254.34 -26.52 0 -116.27 254.34 27.98 0 30.52 -67.94 141.71 0 30.51 67.94zm-162.41 -89.75l61.04 -136.61 61.05 136.61 -122.09 0z"/>
   <polygon id="16" class="fil2" points="15173.8,16475.59 15200.69,16475.59 15200.69,16244.5 15290.07,16244.5 15290.07,16221.25 15084.41,16221.25 15084.41,16244.5 15173.8,16244.5 "/>
   <path id="17" class="fil2" d="M15430.32 16477.77c65.04,0 104.28,-37.79 104.28,-110.82l0 -145.7 -26.16 0 0 144.61c0,60.32 -28.34,87.93 -78.12,87.93 -49.41,0 -77.76,-27.61 -77.76,-87.93l0 -144.61 -26.88 0 0 145.7c0,73.03 39.6,110.82 104.64,110.82z"/>
   <path id="18" class="fil2" d="M15818.74 16475.59l-62.13 -87.2c37.05,-11.99 58.13,-39.97 58.13,-79.94 0,-54.5 -39.24,-87.2 -103.91,-87.2l-95.21 0 0 254.34 26.9 0 0 -80.66 68.31 0c7.26,0 13.8,-0.36 20.34,-1.09l58.14 81.75 29.43 0zm-108.64 -103.55l-67.58 0 0 -127.54 67.58 0c50.86,0 77.76,23.25 77.76,63.95 0,39.97 -26.9,63.59 -77.76,63.59z"/>
   <path id="19" class="fil2" d="M16068.35 16475.59l28.35 0 -116.28 -254.34 -26.52 0 -116.27 254.34 27.98 0 30.52 -67.94 141.7 0 30.52 67.94zm-162.42 -89.75l61.05 -136.61 61.05 136.61 -122.1 0z"/>
   <polygon id="20" class="fil2" points="16138.85,16475.59 16308.17,16475.59 16308.17,16452.34 16165.74,16452.34 16165.74,16221.25 16138.85,16221.25 "/>
   <polygon id="21" class="fil3 str1" points="11001.45,16452.34 11001.45,16357.86 11132.98,16357.86 11132.98,16334.97 11001.45,16334.97 11001.45,16244.5 11148.96,16244.5 11148.96,16221.25 10974.55,16221.25 10974.55,16475.59 11154.42,16475.59 11154.42,16452.34 "/>
   <polygon id="22" class="fil3 str1" points="11405.12,16475.59 11308.11,16344.06 11398.22,16221.25 11369.15,16221.25 11292.85,16325.17 11216.18,16221.25 11185.29,16221.25 11275.77,16344.78 11179.12,16475.59 11210.01,16475.59 11291.76,16363.68 11373.88,16475.59 "/>
   <path id="23" class="fil3 str1" d="M11539.21 16221.25l-95.21 0 0 254.34 26.89 0 0 -80.3 68.32 0c64.66,0 103.91,-32.7 103.91,-86.84 0,-54.5 -39.25,-87.2 -103.91,-87.2zm-0.74 150.43l-67.58 0 0 -127.18 67.58 0c50.87,0 77.77,23.25 77.77,63.95 0,39.97 -26.9,63.23 -77.77,63.23z"/>
   <path id="24" class="fil3 str1" d="M11878.56 16475.59l28.35 0 -116.28 -254.34 -26.52 0 -116.27 254.34 27.98 0 30.52 -67.94 141.71 0 30.51 67.94zm-162.41 -89.75l61.04 -136.61 61.05 136.61 -122.09 0z"/>
   <polygon id="25" class="fil3 str1" points="12135.1,16221.25 12135.1,16427.63 11971.23,16221.25 11949.06,16221.25 11949.06,16475.59 11975.95,16475.59 11975.95,16269.2 12139.46,16475.59 12161.62,16475.59 12161.62,16221.25 "/>
   <path id="26" class="fil3 str1" d="M12314.6 16477.77c65.04,0 94.83,-31.98 94.83,-69.4 0,-92.65 -156.61,-50.51 -156.61,-120.27 0,-25.43 20.72,-46.14 67.22,-46.14 22.53,0 47.97,6.91 69.77,21.07l9.09 -21.43c-20.35,-14.17 -50.15,-22.53 -78.86,-22.53 -64.68,0 -93.74,32.34 -93.74,69.76 0,94.11 156.6,51.23 156.6,120.99 0,25.07 -20.71,45.06 -68.3,45.06 -33.43,0 -65.77,-13.08 -83.94,-30.89l-10.54 20.71c18.9,19.63 56.32,33.07 94.48,33.07z"/>
   <polygon id="27" class="fil3 str1" points="12467.93,16475.59 12494.82,16475.59 12494.82,16221.25 12467.93,16221.25 "/>
   <path id="28" class="fil3 str1" d="M12665.23 16200.53l25.43 0 58.86 -45.05 -34.51 0 -49.78 45.05zm23.62 277.24c76.3,0 133.35,-54.87 133.35,-129.35 0,-74.49 -57.05,-129.35 -133.35,-129.35 -77.03,0 -133.71,55.23 -133.71,129.35 0,74.12 56.68,129.35 133.71,129.35zm0 -23.98c-61.41,0 -107.19,-44.69 -107.19,-105.37 0,-60.68 45.78,-105.37 107.19,-105.37 61.04,0 106.45,44.69 106.45,105.37 0,60.68 -45.41,105.37 -106.45,105.37z"/>
   <polygon id="29" class="fil3 str1" points="13068.54,16221.25 13068.54,16427.63 12904.67,16221.25 12882.5,16221.25 12882.5,16475.59 12909.4,16475.59 12909.4,16269.2 13072.91,16475.59 13095.07,16475.59 13095.07,16221.25 "/>
   <path id="30" class="fil3 str1" d="M13343.24 16477.77c65.04,0 94.84,-31.98 94.84,-69.4 0,-92.65 -156.61,-50.51 -156.61,-120.27 0,-25.43 20.71,-46.14 67.22,-46.14 22.53,0 47.96,6.91 69.76,21.07l9.09 -21.43c-20.35,-14.17 -50.15,-22.53 -78.85,-22.53 -64.68,0 -93.75,32.34 -93.75,69.76 0,94.11 156.6,51.23 156.6,120.99 0,25.07 -20.71,45.06 -68.3,45.06 -33.43,0 -65.77,-13.08 -83.93,-30.89l-10.54 20.71c18.89,19.63 56.32,33.07 94.47,33.07z"/>
   <path id="31" class="fil3 str1" d="M13607.76 16477.77c76.3,0 133.35,-54.87 133.35,-129.35 0,-74.49 -57.05,-129.35 -133.35,-129.35 -77.03,0 -133.71,55.23 -133.71,129.35 0,74.12 56.68,129.35 133.71,129.35zm0 -23.98c-61.4,0 -107.19,-44.69 -107.19,-105.37 0,-60.68 45.79,-105.37 107.19,-105.37 61.05,0 106.46,44.69 106.46,105.37 0,60.68 -45.41,105.37 -106.46,105.37z"/>
   <path id="32" class="fil3 str1" d="M13961.66 16344.42c23.25,-9.45 38.88,-28.7 38.88,-57.77 0,-41.42 -32.7,-65.4 -89.38,-65.4l-109.74 0 0 254.34 117 0c63.59,0 95.56,-24.71 95.56,-67.94 0,-34.52 -19.62,-55.96 -52.32,-63.23zm-52.33 -101.01c40.7,0 64.32,15.63 64.32,46.14 0,30.53 -23.62,46.15 -64.32,46.15l-81.02 0 0 -92.29 81.02 0zm8.72 210.02l-89.74 0 0 -95.57 89.74 0c44.7,0 69.05,14.54 69.05,47.61 0,33.42 -24.35,47.96 -69.05,47.96z"/>
   <path id="33" class="fil3 str1" d="M14278.5 16475.59l-62.13 -87.2c37.06,-11.99 58.14,-39.97 58.14,-79.94 0,-54.5 -39.25,-87.2 -103.92,-87.2l-95.2 0 0 254.34 26.89 0 0 -80.66 68.31 0c7.27,0 13.8,-0.36 20.34,-1.09l58.14 81.75 29.43 0zm-108.64 -103.55l-67.58 0 0 -127.54 67.58 0c50.87,0 77.76,23.25 77.76,63.95 0,39.97 -26.89,63.59 -77.76,63.59z"/>
   <polygon id="34" class="fil3 str1" points="14364.98,16452.34 14364.98,16357.86 14496.51,16357.86 14496.51,16334.97 14364.98,16334.97 14364.98,16244.5 14512.49,16244.5 14512.49,16221.25 14338.08,16221.25 14338.08,16475.59 14517.95,16475.59 14517.95,16452.34 "/>
   <polygon id="35" class="fil3 str1" points="14767.2,16221.25 14767.2,16427.63 14603.33,16221.25 14581.16,16221.25 14581.16,16475.59 14608.06,16475.59 14608.06,16269.2 14771.57,16475.59 14793.73,16475.59 14793.73,16221.25 "/>
   <path id="36" class="fil3 str1" d="M15066.6 16475.59l28.35 0 -116.28 -254.34 -26.52 0 -116.27 254.34 27.98 0 30.52 -67.94 141.71 0 30.51 67.94zm-162.41 -89.75l61.04 -136.61 61.05 136.61 -122.09 0z"/>
   <polygon id="37" class="fil3 str1" points="15173.8,16475.59 15200.69,16475.59 15200.69,16244.5 15290.07,16244.5 15290.07,16221.25 15084.41,16221.25 15084.41,16244.5 15173.8,16244.5 "/>
   <path id="38" class="fil3 str1" d="M15430.32 16477.77c65.04,0 104.28,-37.79 104.28,-110.82l0 -145.7 -26.16 0 0 144.61c0,60.32 -28.34,87.93 -78.12,87.93 -49.41,0 -77.76,-27.61 -77.76,-87.93l0 -144.61 -26.88 0 0 145.7c0,73.03 39.6,110.82 104.64,110.82z"/>
   <path id="39" class="fil3 str1" d="M15818.74 16475.59l-62.13 -87.2c37.05,-11.99 58.13,-39.97 58.13,-79.94 0,-54.5 -39.24,-87.2 -103.91,-87.2l-95.21 0 0 254.34 26.9 0 0 -80.66 68.31 0c7.26,0 13.8,-0.36 20.34,-1.09l58.14 81.75 29.43 0zm-108.64 -103.55l-67.58 0 0 -127.54 67.58 0c50.86,0 77.76,23.25 77.76,63.95 0,39.97 -26.9,63.59 -77.76,63.59z"/>
   <path id="40" class="fil3 str1" d="M16068.35 16475.59l28.35 0 -116.28 -254.34 -26.52 0 -116.27 254.34 27.98 0 30.52 -67.94 141.7 0 30.52 67.94zm-162.42 -89.75l61.05 -136.61 61.05 136.61 -122.1 0z"/>
   <polygon id="41" class="fil3 str1" points="16138.85,16475.59 16308.17,16475.59 16308.17,16452.34 16165.74,16452.34 16165.74,16221.25 16138.85,16221.25 "/>
   <path class="fil0" d="M4779.28 15779.7c-23.9,0 -29.87,-17.92 -29.87,-47.79l0 -1657.87c0,-29.87 5.97,-44.8 29.87,-44.8 23.89,0 29.87,14.93 29.87,44.8l0 675.1 283.78 0 0 -684.06c0,-170.26 -83.64,-283.78 -286.76,-283.78l-47.8 0c-221.05,0 -304.69,128.45 -304.69,310.67l0 1622.02c0,203.12 86.63,319.62 304.69,319.62l47.8 0c203.12,0 286.76,-134.42 286.76,-295.73l0 -755.74 -283.78 0 0 749.77c0,26.88 -5.98,47.79 -29.87,47.79z"/>
   <path id="1" class="fil0" d="M5791.92 14118.85c0,-206.12 -92.6,-337.55 -307.67,-337.55l-41.83 0c-215.07,0 -310.66,128.45 -310.66,337.55l0 1583.19c0,209.1 107.54,331.57 310.66,331.57l41.83 0c194.17,0 307.67,-119.49 307.67,-331.57l0 -1583.19zm-295.73 1607.08c0,29.88 -11.94,47.81 -32.85,47.81 -23.9,0 -32.86,-17.93 -32.86,-47.81l0 -1636.95c0,-35.85 5.98,-50.78 32.86,-50.78 23.89,0 32.85,17.92 32.85,50.78l0 1636.95z"/>
   <polygon id="2" class="fil0" points="5837.23,13796.24 5837.23,16018.68 6073.71,16018.68 6070.73,14590.82 6207.63,16018.68 6478.97,16018.68 6478.97,13796.24 6240,13796.24 6245.98,15077.73 6132.96,13796.24 "/>
   <path id="3" class="fil0" d="M6747.81 16033.61c98.58,0 158.33,-71.68 197.15,-131.43 8.97,26.89 26.88,86.63 29.88,116.5l197.15 0 0 -1299.42 -331.57 0 0 227.03 56.75 0 0 791.59c0,35.86 -14.94,53.77 -41.82,53.77 -26.89,0 -38.84,-17.91 -38.84,-53.77l0 -1666.82c0,-26.89 5.98,-44.81 29.88,-44.81 29.87,0 32.86,17.92 32.86,44.81l0 576.52 280.78 0 0 -591.46c0,-140.39 -62.72,-274.82 -295.72,-274.82l-38.83 0c-230.02,0 -304.69,134.43 -304.69,292.74l0 1678.78c0,152.34 71.69,280.79 221.05,280.79l5.97 0z"/>
   <path id="4" class="fil0" d="M7503.57 14020.27l23.89 0c26.88,0 29.87,11.95 29.87,38.84l0 648.21c0,26.89 -8.96,38.83 -32.86,38.83l-20.9 0 0 -725.88zm0 976.8l20.9 0c29.87,0 32.86,17.92 32.86,38.84l0 911.07c0,32.86 8.96,59.75 20.91,71.7l283.78 0 0 -5.98c-5.98,-17.93 -11.95,-41.82 -11.95,-74.68l0 -946.92c0,-92.61 -59.75,-143.38 -107.54,-161.31 44.81,-20.91 101.56,-68.7 101.56,-185.21l0 -642.23c0,-137.41 -77.66,-206.11 -179.22,-206.11l-454.05 0 0 2222.44 292.75 0 0 -1021.61z"/>
   <polygon id="5" class="fil0" points="7891.89,13796.24 7891.89,16018.68 8384.77,16018.68 8384.77,15749.83 8178.66,15749.83 8178.66,14985.12 8351.91,14985.12 8351.91,14710.3 8178.66,14710.3 8178.66,14062.1 8378.8,14062.1 8378.8,13796.24 "/>
   <path id="6" class="fil0" d="M8698.42 16033.61l65.71 0c203.13,0 298.71,-116.5 298.71,-304.69l0 -573.53c0,-155.33 -35.84,-235.99 -149.35,-337.55l-155.33 -155.33c-35.84,-38.83 -44.81,-56.75 -44.81,-113.51l0 -504.83c0,-23.9 8.97,-35.84 29.88,-35.84 20.9,0 29.86,11.94 29.86,35.84l0 585.48 277.8 0 0 -597.43c0,-143.38 -62.72,-250.92 -274.8,-250.92l-65.72 0c-209.1,0 -289.76,107.54 -289.76,274.82l0 504.83c0,137.4 35.85,235.98 131.43,325.59l158.33 155.33c41.81,41.83 50.77,65.72 50.77,125.47l0 576.52c0,29.88 -8.96,47.79 -32.86,47.79 -23.89,0 -29.86,-17.91 -29.86,-47.79l0 -672.11 -286.77 0 0 693.02c0,176.24 95.58,268.84 286.77,268.84z"/>
   <path id="7" class="fil0" d="M9758.84 14118.85c0,-206.12 -92.59,-337.55 -307.66,-337.55l-41.83 0c-215.08,0 -310.66,128.45 -310.66,337.55l0 1583.19c0,209.1 107.53,331.57 310.66,331.57l41.83 0c194.16,0 307.66,-119.49 307.66,-331.57l0 -1583.19zm-295.72 1607.08c0,29.88 -11.94,47.81 -32.85,47.81 -23.91,0 -32.86,-17.93 -32.86,-47.81l0 -1636.95c0,-35.85 5.97,-50.78 32.86,-50.78 23.89,0 32.85,17.92 32.85,50.78l0 1636.95z"/>
   <path id="8" class="fil0" d="M10263.65 15779.7c-23.9,0 -29.88,-17.92 -29.88,-47.79l0 -1657.87c0,-29.87 5.98,-44.8 29.88,-44.8 23.89,0 29.87,14.93 29.87,44.8l0 675.1 283.77 0 0 -684.06c0,-170.26 -83.63,-283.78 -286.76,-283.78l-47.79 0c-221.05,0 -304.69,128.45 -304.69,310.67l0 1622.02c0,203.12 86.62,319.62 304.69,319.62l47.79 0c203.13,0 286.76,-134.42 286.76,-295.73l0 -755.74 -283.77 0 0 749.77c0,26.88 -5.98,47.79 -29.87,47.79z"/>
   <path id="9" class="fil0" d="M10941.73 15779.7c-23.9,0 -29.87,-17.92 -29.87,-47.79l0 -1657.87c0,-29.87 5.97,-44.8 29.87,-44.8 23.89,0 29.87,14.93 29.87,44.8l0 675.1 283.78 0 0 -684.06c0,-170.26 -83.64,-283.78 -286.76,-283.78l-47.8 0c-221.05,0 -304.69,128.45 -304.69,310.67l0 1622.02c0,203.12 86.63,319.62 304.69,319.62l47.8 0c203.12,0 286.76,-134.42 286.76,-295.73l0 -755.74 -283.78 0 0 749.77c0,26.88 -5.98,47.79 -29.87,47.79z"/>
   <polygon id="10" class="fil0" points="11294.21,13796.24 11294.21,16018.68 11787.1,16018.68 11787.1,15749.83 11580.98,15749.83 11580.98,14985.12 11754.24,14985.12 11754.24,14710.3 11580.98,14710.3 11580.98,14062.1 11781.12,14062.1 11781.12,13796.24 "/>
   <path id="11" class="fil0" d="M12285.92 15313.71l-71.7 0 35.85 -937.97 35.85 937.97zm26.88 704.97l280.79 0 -149.36 -2222.44 -370.4 0 -140.4 2222.44 250.92 0 17.92 -451.06 92.61 0 17.92 451.06z"/>
   <path id="12" class="fil0" d="M12901.27 14020.27l23.9 0c26.88,0 29.87,11.95 29.87,38.84l0 648.21c0,26.89 -8.97,38.83 -32.86,38.83l-20.91 0 0 -725.88zm0 976.8l20.91 0c29.87,0 32.86,17.92 32.86,38.84l0 911.07c0,32.86 8.96,59.75 20.91,71.7l283.78 0 0 -5.98c-5.98,-17.93 -11.95,-41.82 -11.95,-74.68l0 -946.92c0,-92.61 -59.75,-143.38 -107.54,-161.31 44.81,-20.91 101.56,-68.7 101.56,-185.21l0 -642.23c0,-137.41 -77.66,-206.11 -179.22,-206.11l-454.05 0 0 2222.44 292.74 0 0 -1021.61z"/>
   <path id="13" class="fil0" d="M13516.62 16033.61c98.58,0 158.32,-71.68 197.15,-131.43 8.97,26.89 26.88,86.63 29.88,116.5l197.14 0 0 -1299.42 -331.57 0 0 227.03 56.75 0 0 791.59c0,35.86 -14.93,53.77 -41.81,53.77 -26.89,0 -38.84,-17.91 -38.84,-53.77l0 -1666.82c0,-26.89 5.98,-44.81 29.88,-44.81 29.87,0 32.86,17.92 32.86,44.81l0 576.52 280.78 0 0 -591.46c0,-140.39 -62.72,-274.82 -295.72,-274.82l-38.83 0c-230.02,0 -304.7,134.43 -304.7,292.74l0 1678.78c0,152.34 71.7,280.79 221.05,280.79l5.98 0z"/>
   <polygon id="14" class="fil0" points="14227.56,15696.06 13976.65,15696.06 13976.65,16018.68 14227.56,16018.68 "/>
   <path class="fil4" d="M14351.89 16018.68l353.36 0 0 -53.64 -296.57 0 0 -246.09c0,-321.82 85.19,-485.88 164.06,-637.32 69.41,-129.36 132.51,-249.25 132.51,-451.17l0 -634.16c0,-129.36 -72.57,-208.24 -176.68,-208.24 -100.96,0 -176.68,78.88 -176.68,208.24l0 649.94 56.79 0 0 -646.79c0,-113.58 56.79,-154.6 119.89,-154.6 63.1,0 119.89,41.02 119.89,154.6l0 615.24c0,201.92 -63.1,321.81 -132.51,451.17 -78.87,151.43 -164.06,315.5 -164.06,637.31l0 315.51z"/>
   <path id="1" class="fil4" d="M15200.59 13996.3c0,-126.21 -72.57,-205.09 -176.68,-205.09 -104.12,0 -176.68,75.73 -176.68,205.09l0 1836.23c0,126.2 72.56,205.07 176.68,205.07 104.11,0 176.68,-75.71 176.68,-205.07l0 -1836.23zm-56.79 0l0 1833.08c0,113.58 -56.8,154.6 -119.89,154.6 -63.1,0 -119.89,-41.02 -119.89,-154.6l0 -1833.08c0,-110.43 56.79,-151.45 119.89,-151.45 63.09,0 119.89,41.02 119.89,151.45z"/>
   <path id="2" class="fil4" d="M15339.41 16018.68l353.36 0 0 -53.64 -296.57 0 0 -246.09c0,-321.82 85.19,-485.88 164.06,-637.32 69.41,-129.36 132.51,-249.25 132.51,-451.17l0 -634.16c0,-129.36 -72.56,-208.24 -176.68,-208.24 -100.96,0 -176.68,78.88 -176.68,208.24l0 649.94 56.79 0 0 -646.79c0,-113.58 56.79,-154.6 119.89,-154.6 63.1,0 119.89,41.02 119.89,154.6l0 615.24c0,201.92 -63.1,321.81 -132.51,451.17 -78.87,151.43 -164.06,315.5 -164.06,637.31l0 315.51z"/>
   <path id="3" class="fil4" d="M15891.54 14740.88l0 -741.43c0,-110.43 56.79,-151.45 119.89,-151.45 63.1,0 119.89,41.02 119.89,151.45l0 489.03 56.79 0 0 -492.18c0,-126.21 -72.57,-205.09 -176.68,-205.09 -104.11,0 -176.68,75.73 -176.68,205.09l0 1836.23c0,129.36 72.57,205.07 176.68,205.07 104.11,0 176.68,-75.71 176.68,-205.07l0 -993.84c0,-129.36 -63.1,-205.08 -154.59,-205.08 -63.11,0 -113.58,37.86 -135.67,107.27l-6.31 0zm0 100.96c0,-113.58 56.79,-154.59 119.89,-154.59 63.1,0 119.89,41.01 119.89,154.59l0 990.69c0,110.43 -56.79,151.45 -119.89,151.45 -63.1,0 -119.89,-41.02 -119.89,-151.45l0 -990.69z"/>
   <g id="_1433881477616">
    <path class="fil5" d="M16954.39 14387.49l-19.41 -9.48 0 -1070.43 19.41 -9.48 0 1089.39zm186.83 -1089.41l19.44 9.5 0 417.95 -9.71 6.68 -9.73 -6.68 0 -427.45zm0 646.99l9.73 -6.71 9.71 6.71 0 432.94 -19.44 9.49 0 -442.43zm93.63 479.27l0 -502.42 -83.9 -57.67 -83.88 57.67 0 501.79 -19.25 9.39 -19.27 -9.41 0 -1161.8 19.27 -9.42 19.25 9.4 0 486.83 83.88 57.62 83.88 -57.62 0.02 0 0 -487.44 -187.03 -91.3 -187.01 91.3 0 1163.08 187.01 91.31 187.03 -91.31z"/>
    <path class="fil5" d="M17576.85 13510.82l19.56 9.56 0 205.1 -9.78 6.73 -9.78 -6.73 0 -214.66zm-186.72 755.14l-19.44 9.49 0 -865.31 19.44 9.51 0 846.31zm186.72 -320.86l9.78 -6.71 9.78 6.71 0 220.11 -19.56 9.55 0 -229.66zm-74.19 -196.4l83.97 57.68 83.92 -57.68 0 -274.63 -374.01 -182.67 0 1102.8 374.01 -182.67 0 -289.65 -83.92 -57.66 -83.97 57.66 0 289.1 -38.36 18.76 0 -352.82 68.07 0 0 -74.16 -68.07 0 0 -346.9 38.36 18.75 0 274.09z"/>
    <path class="fil5" d="M16518.52 14174.64l-19.29 -9.43 0 -644.83 19.29 -9.44 0 663.7zm187.18 -229.66l9.63 -6.62 9.61 6.62 0 330.47 -19.24 -9.38 0 -321.09zm0 -525.45l19.24 -9.39 0 315.47 -9.61 6.6 -9.63 -6.6 0 -306.08zm-74.14 329.17l0.01 0 83.76 57.53 83.75 -57.53 0.03 0 0 -0.02 0 -457.28 -374.03 182.67 0 737.46 374.03 182.67 0 -472.28 0 -0.19 -0.27 0 -83.51 -57.38 -83.51 57.38 -0.26 0 0 0.19 0 307.92 -38.88 -18.98 0 -736.13 38.88 -18.97 0 292.92 0 0.02z"/>
    <polygon class="fil5" points="17235.91,13222.35 17048.35,13105.14 16860.8,13222.35 17048.35,13139.81 "/>
   </g>
  </g>
 </g>
</svg>
