<?xml version="1.0" encoding="UTF-8"?>
<!DOCTYPE svg PUBLIC "-//W3C//DTD SVG 1.1//EN" "http://www.w3.org/Graphics/SVG/1.1/DTD/svg11.dtd">
<!-- Creator: CorelDRAW 2020 (64-Bit) -->
<svg xmlns="http://www.w3.org/2000/svg" xml:space="preserve" width="31.92mm" height="36.15mm" version="1.1" style="shape-rendering:geometricPrecision; text-rendering:geometricPrecision; image-rendering:optimizeQuality; fill-rule:evenodd; clip-rule:evenodd"
viewBox="0 0 3192 3615"
 xmlns:xlink="http://www.w3.org/1999/xlink"
 xmlns:xodm="http://www.corel.com/coreldraw/odm/2003">
 <defs>
  <style type="text/css">
   <![CDATA[
    .fil0 {fill:#ECBC68;fill-rule:nonzero}
   ]]>
  </style>
 </defs>
 <g id="Capa_x0020_1">
  <metadata id="CorelCorpID_0Corel-Layer"/>
  <g id="_1434141457856">
   <path class="fil0" d="M1349.39 3287.02l-49.74 -24.29 0 -2743.38 49.74 -24.29 0 2791.96zm478.83 -2792l49.83 24.33 0 1071.16 -24.9 17.11 -24.93 -17.11 0 -1095.49zm0 1658.15l24.93 -17.2 24.9 17.2 0 1109.56 -49.83 24.34 0 -1133.9zm239.97 1228.3l0 -1287.63 -215.04 -147.8 -214.96 147.8 0 1286.03 -49.33 24.07 -49.39 -24.12 0 -2977.57 49.39 -24.15 49.33 24.11 0 1247.68 214.96 147.67 215 -147.67 0.04 0 0 -1249.24 -479.33 -234.01 -479.31 234.01 0 2980.82 479.31 234.02 479.33 -234.02z"/>
   <path class="fil0" d="M2944.7 1040.24l50.11 24.5 0 525.63 -25.05 17.25 -25.06 -17.25 0 -550.13zm-478.54 1935.33l-49.83 24.33 0 -2217.71 49.83 24.37 0 2169.01zm478.54 -822.32l25.06 -17.2 25.05 17.2 0 564.09 -50.11 24.5 0 -588.59zm-190.14 -503.37l215.2 147.84 215.09 -147.84 0 -703.83 -958.55 -468.16 0 2826.33 958.55 -468.16 0 -742.32 -215.09 -147.79 -215.2 147.79 0 740.91 -98.33 48.09 0 -904.23 174.47 0 0 -190.06 -174.47 0 0 -889.08 98.33 48.05 0 702.46z"/>
   <path class="fil0" d="M232.32 2741.51l-49.45 -24.17 0 -1652.6 49.45 -24.2 0 1700.97zm479.72 -588.57l24.68 -16.97 24.63 16.97 0 846.96 -49.31 -24.04 0 -822.92zm0 -1346.67l49.31 -24.08 0 808.52 -24.63 16.91 -24.68 -16.91 0 -784.44zm-190.01 843.61l0.02 0 214.67 147.47 214.64 -147.47 0.08 0 0 -0.05 0 -1171.94 -958.61 468.16 0 1890.01 958.61 468.16 0 -1210.39 0 -0.48 -0.7 0 -214.02 -147.07 -214.03 147.07 -0.66 0 0 0.48 0 789.16 -99.65 -48.63 0 -1886.61 99.65 -48.62 0 750.7 0 0.05z"/>
   <polygon class="fil0" points="2070.91,300.92 1590.22,0.51 1109.54,300.92 1590.22,89.37 "/>
  </g>
 </g>
</svg>
