<?xml version="1.0" encoding="UTF-8"?>
<!DOCTYPE svg PUBLIC "-//W3C//DTD SVG 1.1//EN" "http://www.w3.org/Graphics/SVG/1.1/DTD/svg11.dtd">
<!-- Creator: CorelDRAW 2020 (64-Bit) -->
<svg xmlns="http://www.w3.org/2000/svg" xml:space="preserve" version="1.1" style="shape-rendering:geometricPrecision; text-rendering:geometricPrecision; image-rendering:optimizeQuality; fill-rule:evenodd; clip-rule:evenodd"
viewBox="7300 11000 6600 7100"
 xmlns:xlink="http://www.w3.org/1999/xlink"
 xmlns:xodm="http://www.corel.com/coreldraw/odm/2003">
 <defs>
  <style type="text/css">
   <![CDATA[
    .fil0 {fill:#ECBC68;fill-rule:nonzero}
   ]]>
  </style>
 </defs>
 <g id="Capa_x0020_1">
  <metadata id="CorelCorpID_0Corel-Layer"/>
  <g id="_2229870356752">
   <path class="fil0" d="M10033.28 17689.41l-95.48 -46.63 0 -5265.72 95.48 -46.63 0 5358.98zm919.07 -5359.06l95.64 46.71 0 2056.01 -47.78 32.85 -47.86 -32.85 0 -2102.72zm0 3182.72l47.86 -33.02 47.78 33.02 0 2129.71 -95.64 46.71 0 -2176.42zm460.6 2357.63l0 -2471.53 -412.74 -283.69 -412.61 283.69 0 2468.46 -94.68 46.19 -94.81 -46.3 0 -5715.23 94.81 -46.35 94.68 46.27 0 2394.83 412.61 283.44 412.66 -283.44 0.08 0 0 -2397.82 -920.03 -449.17 -919.99 449.17 0 5721.48 919.99 449.17 920.03 -449.17z"/>
   <path class="fil0" d="M13095.35 13376.88l96.19 47.02 0 1008.91 -48.09 33.1 -48.1 -33.1 0 -1055.93zm-918.52 3714.72l-95.64 46.69 0 -4256.73 95.64 46.78 0 4163.26zm918.52 -1578.39l48.1 -33.02 48.09 33.02 0 1082.74 -96.19 47.02 0 -1129.76zm-364.96 -966.18l413.06 283.76 412.85 -283.76 0 -1350.95 -1839.87 -898.6 0 5424.94 1839.87 -898.6 0 -1424.83 -412.85 -283.68 -413.06 283.68 0 1422.12 -188.72 92.3 0 -1735.6 334.88 0 0 -364.81 -334.88 0 0 -1706.52 188.72 92.22 0 1348.33z"/>
   <path class="fil0" d="M7889.14 16642.34l-94.92 -46.39 0 -3172.05 94.92 -46.46 0 3264.9zm920.79 -1129.73l47.37 -32.57 47.26 32.57 0 1625.68 -94.63 -46.14 0 -1579.54zm0 -2584.83l94.63 -46.22 0 1551.89 -47.26 32.46 -47.37 -32.46 0 -1505.67zm-364.72 1619.25l0.04 0 412.05 283.05 411.99 -283.05 0.16 0 0 -0.09 0 -2249.46 -1840 898.6 0 3627.74 1840 898.6 0 -2323.26 0 -0.93 -1.36 0 -410.79 -282.29 -410.82 282.29 -1.27 0 0 0.93 0 1514.73 -191.27 -93.33 0 -3621.22 191.27 -93.33 0 1440.93 0 0.09z"/>
   <polygon class="fil0" points="11418.19,11957.79 10495.52,11381.19 9572.9,11957.79 10495.52,11551.73 "/>
  </g>
 </g>
</svg>
